<svg width="20" height="20" viewBox="0 0 20 20" fill="none" xmlns="http://www.w3.org/2000/svg">
<path d="M10 20C15.5228 20 20 15.5228 20 10C20 4.47715 15.5228 0 10 0C4.47715 0 0 4.47715 0 10C0 15.5228 4.47715 20 10 20Z" fill="#966645"/>
<path d="M10.0001 19.3219C15.1484 19.3219 19.3219 15.1484 19.3219 10.0001C19.3219 4.85176 15.1484 0.678223 10.0001 0.678223C4.85176 0.678223 0.678223 4.85176 0.678223 10.0001C0.678223 15.1484 4.85176 19.3219 10.0001 19.3219Z" fill="#BBE383"/>
<path d="M10 13.5921C11.7805 13.5921 13.2238 11.9839 13.2238 9.99997C13.2238 8.01609 11.7805 6.40784 10 6.40784C8.21958 6.40784 6.77625 8.01609 6.77625 9.99997C6.77625 11.9839 8.21958 13.5921 10 13.5921Z" fill="#FFFCB5"/>
<path d="M10.0001 13.2237C11.984 13.2237 13.5922 11.7804 13.5922 10C13.5922 8.21965 11.984 6.77637 10.0001 6.77637C8.01622 6.77637 6.40796 8.21965 6.40796 10C6.40796 11.7804 8.01622 13.2237 10.0001 13.2237Z" fill="#FFFCB5"/>
<path d="M10.1097 6.04269C10.1087 6.11343 10.0504 6.16984 9.97986 6.16886C9.90911 6.16773 9.85255 6.10956 9.85353 6.03882L9.88997 3.61533C9.89099 3.54458 9.94943 3.48802 10.0201 3.48915C10.0907 3.49029 10.1473 3.54845 10.1461 3.61919L10.1097 6.04269Z" fill="#93BF54"/>
<path d="M10.1097 16.4979C10.1087 16.5687 10.0504 16.6252 9.97986 16.6243C9.90911 16.6232 9.85255 16.5649 9.85353 16.4943L9.88997 14.0705C9.89099 13.9999 9.94943 13.9435 10.0201 13.9443C10.0907 13.9455 10.1473 14.0038 10.1461 14.0744L10.1097 16.4979Z" fill="#93BF54"/>
<path d="M10.6577 6.43389C10.647 6.49792 10.5818 6.54007 10.5121 6.52846C10.4424 6.51675 10.3942 6.45546 10.4049 6.39143L10.7724 4.19958C10.7831 4.13555 10.8486 4.09313 10.9183 4.10485C10.9879 4.11673 11.0358 4.17813 11.0251 4.24204L10.6577 6.43389Z" fill="#93BF54"/>
<path d="M9.2275 15.914C9.21679 15.9778 9.15148 16.0202 9.08191 16.0086C9.01219 15.9968 8.96418 15.9354 8.97488 15.8715L9.34238 13.6797C9.35308 13.6158 9.4184 13.5734 9.48828 13.5851C9.55785 13.5968 9.60586 13.6582 9.59515 13.7221L9.2275 15.914Z" fill="#93BF54"/>
<path d="M11.2142 6.22912C11.1936 6.29698 11.1221 6.33487 11.0545 6.31455C10.9869 6.29397 10.9485 6.2224 10.9691 6.15483L11.6735 3.83563C11.6941 3.76789 11.7658 3.72977 11.8335 3.75031C11.9011 3.7709 11.9393 3.84246 11.9187 3.91004L11.2142 6.22912Z" fill="#93BF54"/>
<path d="M8.32652 16.2777C8.30594 16.3456 8.23449 16.3835 8.16691 16.3632C8.09933 16.3427 8.0609 16.271 8.08148 16.2033L8.7859 13.8842C8.80649 13.8164 8.87805 13.7785 8.94594 13.7988C9.01352 13.8195 9.05169 13.8911 9.0311 13.9587L8.32652 16.2777Z" fill="#93BF54"/>
<path d="M11.6328 6.75632C11.6048 6.81492 11.5305 6.8375 11.4668 6.80707C11.4031 6.77664 11.3738 6.70433 11.4016 6.64589L12.3603 4.64076C12.3883 4.58217 12.4628 4.55959 12.5267 4.59018C12.5903 4.62076 12.6194 4.69291 12.5914 4.75135L11.6328 6.75632Z" fill="#93BF54"/>
<path d="M7.63975 15.4727C7.61174 15.5313 7.53745 15.5538 7.47358 15.5234C7.40987 15.4927 7.38057 15.4207 7.40858 15.3621L8.36718 13.3569C8.39519 13.2984 8.46964 13.2758 8.53351 13.3064C8.59722 13.3368 8.62624 13.4088 8.59839 13.4674L7.63975 15.4727Z" fill="#93BF54"/>
<path d="M12.3435 6.79595C12.303 6.85396 12.2231 6.86783 12.1652 6.82751C12.1074 6.78693 12.0932 6.70693 12.1337 6.64903L13.5238 4.66351C13.5644 4.60566 13.6444 4.59163 13.7024 4.63222C13.7602 4.6728 13.7743 4.75269 13.7337 4.81054L12.3435 6.79595Z" fill="#93BF54"/>
<path d="M6.47599 15.4497C6.43541 15.5077 6.35568 15.5217 6.29767 15.4813C6.23982 15.4408 6.22564 15.3607 6.26611 15.303L7.65624 13.3174C7.69682 13.2594 7.77671 13.2454 7.83483 13.2861C7.89257 13.3266 7.90671 13.4065 7.86612 13.4645L6.47599 15.4497Z" fill="#93BF54"/>
<path d="M12.5774 7.42697C12.5326 7.47396 12.4549 7.47228 12.4038 7.42369C12.3526 7.37498 12.3472 7.29709 12.3919 7.25021L13.926 5.64218C13.9708 5.59531 14.0488 5.59687 14.1001 5.64574C14.1511 5.69461 14.1562 5.77219 14.1115 5.81906L12.5774 7.42697Z" fill="#93BF54"/>
<path d="M6.07383 14.4712C6.02911 14.5184 5.95137 14.5164 5.90008 14.4679C5.84907 14.4191 5.84364 14.3415 5.88836 14.2943L7.42267 12.6863C7.4674 12.6394 7.54513 12.6412 7.59642 12.6899C7.64744 12.7387 7.65271 12.8163 7.60799 12.8632L6.07383 14.4712Z" fill="#93BF54"/>
<path d="M13.1898 7.61727C13.1342 7.66113 13.0536 7.65113 13.01 7.59582C12.9664 7.54008 12.976 7.45949 13.0316 7.41578L14.9387 5.91964C14.9944 5.87592 15.075 5.88577 15.1185 5.94151C15.1621 5.9971 15.1524 6.07768 15.0967 6.12128L13.1898 7.61727Z" fill="#93BF54"/>
<path d="M5.06134 14.1936C5.0056 14.2374 4.92532 14.2273 4.88157 14.1721C4.83798 14.1163 4.84755 14.0357 4.90313 13.9921L6.8101 12.4959C6.86585 12.4521 6.94628 12.4619 6.99014 12.5177C7.03374 12.5732 7.02386 12.6538 6.96827 12.6974L5.06134 14.1936Z" fill="#93BF54"/>
<path d="M13.2304 8.28927C13.1738 8.32115 13.0999 8.29712 13.0652 8.23556C13.0303 8.17396 13.0478 8.0981 13.1042 8.0661L15.0393 6.97317C15.0959 6.94129 15.1699 6.96543 15.2048 7.02719C15.2394 7.08879 15.2218 7.1645 15.1653 7.19653L13.2304 8.28927Z" fill="#93BF54"/>
<path d="M4.96063 13.1402C4.90403 13.1724 4.83016 13.1481 4.79532 13.0866C4.76059 13.0249 4.77802 12.9491 4.83462 12.9172L6.76987 11.8241C6.82631 11.7922 6.90018 11.8165 6.93503 11.8782C6.96975 11.9397 6.95217 12.0153 6.89573 12.0474L4.96063 13.1402Z" fill="#93BF54"/>
<path d="M13.8027 8.76675C13.7361 8.79046 13.6629 8.7553 13.6392 8.68874C13.6156 8.62202 13.6506 8.54886 13.7174 8.52514L16.0031 7.71854C16.0698 7.69494 16.143 7.72998 16.1666 7.79686C16.19 7.86358 16.155 7.93674 16.0884 7.96018L13.8027 8.76675Z" fill="#93BF54"/>
<path d="M3.99701 12.3949C3.93029 12.4186 3.85712 12.3835 3.83353 12.3171C3.80993 12.2504 3.84497 12.177 3.91169 12.1535L6.1973 11.3468C6.26402 11.323 6.33718 11.3582 6.36089 11.4249C6.38433 11.4916 6.34917 11.5648 6.28257 11.5885L3.99701 12.3949Z" fill="#93BF54"/>
<path d="M13.6262 9.41621C13.5625 9.42836 13.5002 9.38191 13.4869 9.31246C13.4736 9.24316 13.5145 9.17672 13.5782 9.16457L15.7615 8.74863C15.8252 8.73648 15.8876 8.78308 15.9009 8.85281C15.9141 8.92211 15.8731 8.9884 15.8093 9.00054L13.6262 9.41621Z" fill="#93BF54"/>
<path d="M4.23884 11.3645C4.17497 11.3768 4.11283 11.3302 4.09939 11.2609C4.08622 11.1915 4.12712 11.125 4.19083 11.1131L6.37428 10.697C6.43788 10.685 6.50018 10.7314 6.51346 10.8011C6.52663 10.8706 6.48573 10.9367 6.42217 10.9488L4.23884 11.3645Z" fill="#93BF54"/>
<path d="M14.013 10.1996C13.9423 10.198 13.8864 10.1392 13.8878 10.0687C13.8896 9.99797 13.9483 9.94168 14.0189 9.9434L16.442 9.99984C16.5128 10.0016 16.5688 10.0603 16.5671 10.131C16.5654 10.2016 16.5067 10.2578 16.4361 10.2561L14.013 10.1996Z" fill="#93BF54"/>
<path d="M3.55793 10.1134C3.48707 10.1118 3.43117 10.0532 3.43277 9.98264C3.43434 9.91206 3.49309 9.85577 3.56379 9.85733L5.98685 9.91378C6.05771 9.9155 6.11361 9.97421 6.11201 10.045C6.11029 10.1155 6.05158 10.1717 5.98083 10.17L3.55793 10.1134Z" fill="#93BF54"/>
<path d="M13.6173 10.744C13.5534 10.7327 13.5116 10.6671 13.5239 10.5976C13.536 10.5281 13.5979 10.4805 13.6616 10.4918L15.8505 10.8774C15.9144 10.8886 15.9562 10.9545 15.9439 11.0239C15.9316 11.0936 15.8698 11.1408 15.8059 11.1296L13.6173 10.744Z" fill="#93BF54"/>
<path d="M4.14953 9.23603C4.08551 9.22474 4.04379 9.15915 4.05594 9.0897C4.06836 9.01997 4.13008 8.97255 4.19394 8.98384L6.38295 9.36935C6.44666 9.38063 6.48838 9.44622 6.47611 9.51595C6.46381 9.5854 6.40209 9.63266 6.33837 9.62153L4.14953 9.23603Z" fill="#93BF54"/>
<path d="M13.7646 11.454C13.6978 11.4303 13.6634 11.3568 13.687 11.2902C13.7109 11.2238 13.7843 11.1889 13.8507 11.2126L16.1333 12.0281C16.1999 12.0518 16.2346 12.1252 16.2108 12.1918C16.1869 12.2583 16.1136 12.2931 16.047 12.2691L13.7646 11.454Z" fill="#93BF54"/>
<path d="M3.86682 8.08532C3.79995 8.06161 3.76538 7.98817 3.78909 7.92172C3.8128 7.85512 3.88624 7.82028 3.95284 7.84399L6.23528 8.65931C6.302 8.68318 6.33657 8.75646 6.31286 8.82322C6.28899 8.88966 6.21555 8.92439 6.14911 8.90068L3.86682 8.08532Z" fill="#93BF54"/>
<path d="M13.2179 11.8467C13.1609 11.8157 13.1417 11.7404 13.1751 11.6784C13.2086 11.6161 13.2823 11.5902 13.3393 11.621L15.296 12.6753C15.353 12.706 15.3722 12.7816 15.3386 12.8439C15.305 12.9062 15.2314 12.9315 15.1744 12.9008L13.2179 11.8467Z" fill="#93BF54"/>
<path d="M4.70418 7.43823C4.64688 7.40737 4.62801 7.33205 4.66133 7.26975C4.69504 7.20744 4.76848 7.18186 4.82567 7.2126L6.78237 8.26694C6.83924 8.29765 6.85823 8.37296 6.82479 8.43542C6.7912 8.49773 6.71776 8.52316 6.66076 8.4923L4.70418 7.43823Z" fill="#93BF54"/>
<path d="M12.9805 12.7477C12.9272 12.7008 12.9224 12.6198 12.9688 12.5668C13.0157 12.5138 13.0967 12.5085 13.1498 12.5551L14.9687 14.1572C15.0218 14.2041 15.0269 14.2851 14.98 14.3381C14.9333 14.3911 14.8523 14.3964 14.7993 14.3496L12.9805 12.7477Z" fill="#93BF54"/>
<path d="M5.03148 5.95581C4.9782 5.9091 4.9732 5.82808 5.01976 5.77519C5.06632 5.72202 5.14765 5.71691 5.20066 5.76363L7.01958 7.36567C7.07275 7.41239 7.07786 7.4934 7.03103 7.54657C6.98431 7.59958 6.90313 7.60473 6.85013 7.55801L5.03148 5.95581Z" fill="#93BF54"/>
<path d="M12.3273 12.9103C12.2856 12.8605 12.2958 12.7832 12.3499 12.7381C12.4041 12.6926 12.4819 12.6959 12.5237 12.7456L13.9514 14.4491C13.9931 14.4986 13.9828 14.5762 13.9285 14.6213C13.8744 14.6668 13.7965 14.6632 13.7549 14.6135L12.3273 12.9103Z" fill="#93BF54"/>
<path d="M6.0488 5.66465C6.00693 5.61476 6.01736 5.53777 6.07138 5.49234C6.12568 5.44703 6.20341 5.45035 6.24513 5.50008L7.67283 7.20356C7.7144 7.25313 7.70412 7.33032 7.64983 7.37575C7.59568 7.42106 7.51807 7.41774 7.47635 7.3679L6.0488 5.66465Z" fill="#93BF54"/>
<path d="M11.8527 13.6192C11.8191 13.5569 11.8428 13.4793 11.905 13.4459C11.9674 13.4125 12.0451 13.4359 12.0786 13.4981L13.2232 15.6346C13.2565 15.6969 13.233 15.7747 13.1707 15.8082C13.1083 15.8414 13.0306 15.818 12.9973 15.7558L11.8527 13.6192Z" fill="#93BF54"/>
<path d="M6.77727 4.4786C6.74368 4.41618 6.76727 4.33871 6.82942 4.30528C6.89173 4.27184 6.96946 4.29528 7.00302 4.35758L8.14752 6.49401C8.18096 6.55643 8.15752 6.63389 8.0951 6.6676C8.03279 6.70077 7.95506 6.67733 7.92177 6.61502L6.77727 4.4786Z" fill="#93BF54"/>
<path d="M11.1838 13.5434C11.162 13.4822 11.1986 13.4133 11.2649 13.3899C11.3315 13.3662 11.4034 13.3966 11.4251 13.4577L12.1678 15.5524C12.1895 15.6136 12.1529 15.6825 12.0862 15.7059C12.0196 15.7296 11.9479 15.6989 11.9263 15.6381L11.1838 13.5434Z" fill="#93BF54"/>
<path d="M7.83225 4.56093C7.81038 4.49964 7.8471 4.4312 7.91354 4.40733C7.98026 4.3839 8.05198 4.41421 8.0737 4.47534L8.8164 6.57032C8.83797 6.63118 8.8014 6.69978 8.73468 6.72349C8.66808 6.74708 8.59652 6.71677 8.57496 6.65564L7.83225 4.56093Z" fill="#93BF54"/>
<path d="M10.5456 14.0349C10.5351 13.9649 10.5835 13.8999 10.6532 13.8892C10.7232 13.8789 10.7885 13.9272 10.7991 13.9969L11.1581 16.3941C11.1685 16.4639 11.1201 16.5292 11.0502 16.5399C10.9803 16.5501 10.915 16.5019 10.9046 16.4321L10.5456 14.0349Z" fill="#93BF54"/>
<path d="M8.84242 3.71922C8.83172 3.64922 8.88016 3.58406 8.94989 3.57347C9.01977 3.56289 9.0852 3.61133 9.09579 3.68121L9.45459 6.07827C9.46517 6.14815 9.41685 6.21331 9.34685 6.22401C9.27697 6.23428 9.21169 6.186 9.20126 6.11612L8.84242 3.71922Z" fill="#93BF54"/>
<path d="M7.4383 6.88111C7.36405 6.771 7.25155 6.717 7.18703 6.76051C7.12252 6.80402 7.13041 6.92855 7.20466 7.03866C7.27892 7.14877 7.39141 7.20277 7.45593 7.15926C7.52045 7.11575 7.51256 6.99122 7.4383 6.88111Z" fill="#4F1818"/>
<path d="M7.61677 5.53015C7.54252 5.42004 7.43002 5.36605 7.3655 5.40955C7.30099 5.45306 7.30888 5.5776 7.38313 5.68771C7.45738 5.79782 7.56988 5.85181 7.6344 5.80831C7.69892 5.7648 7.69102 5.64027 7.61677 5.53015Z" fill="#4F1818"/>
<path d="M9.42647 5.82828C9.43194 5.69549 9.37333 5.58525 9.29558 5.58205C9.21782 5.57885 9.15036 5.68391 9.1449 5.8167C9.13944 5.94948 9.19804 6.05972 9.2758 6.06292C9.35355 6.06612 9.42101 5.96107 9.42647 5.82828Z" fill="#4F1818"/>
<path d="M8.66933 5.97907C8.59067 5.87206 8.47607 5.82268 8.41338 5.86877C8.35068 5.91486 8.36362 6.03897 8.44228 6.14597C8.52095 6.25298 8.63554 6.30236 8.69824 6.25627C8.76094 6.21018 8.748 6.08607 8.66933 5.97907Z" fill="#4F1818"/>
<path d="M10.1383 5.09147C10.1607 4.96058 10.1167 4.84381 10.04 4.83067C9.96335 4.81752 9.88299 4.91298 9.86056 5.04388C9.83813 5.17477 9.88212 5.29154 9.95882 5.30468C10.0355 5.31782 10.1159 5.22237 10.1383 5.09147Z" fill="#4F1818"/>
<path d="M10.7803 5.80403C10.8028 5.67314 10.7589 5.55636 10.6822 5.54318C10.6055 5.53 10.5251 5.62542 10.5026 5.7563C10.4802 5.88719 10.5241 6.00397 10.6007 6.01715C10.6774 6.03033 10.7578 5.93491 10.7803 5.80403Z" fill="#4F1818"/>
<path d="M11.8375 6.24551C11.9097 6.13405 11.9153 6.0094 11.85 5.96708C11.7847 5.92477 11.6732 5.98081 11.601 6.09226C11.5288 6.20372 11.5232 6.32837 11.5885 6.37069C11.6538 6.41301 11.7652 6.35696 11.8375 6.24551Z" fill="#4F1818"/>
<path d="M11.5304 5.08558C11.5475 4.95389 11.4989 4.83898 11.4218 4.82891C11.3446 4.81885 11.2681 4.91745 11.2509 5.04915C11.2338 5.18084 11.2824 5.29575 11.3596 5.30582C11.4367 5.31588 11.5132 5.21728 11.5304 5.08558Z" fill="#4F1818"/>
<path d="M12.5207 6.56072C12.6033 6.45673 12.6209 6.3332 12.56 6.28479C12.4991 6.23639 12.3827 6.28145 12.3001 6.38544C12.2175 6.48943 12.1999 6.61297 12.2608 6.66137C12.3218 6.70977 12.4381 6.66471 12.5207 6.56072Z" fill="#4F1818"/>
<path d="M13.4546 6.53081C13.5372 6.42682 13.5547 6.30329 13.4938 6.25489C13.4329 6.20648 13.3165 6.25154 13.2339 6.35553C13.1513 6.45952 13.1337 6.58306 13.1947 6.63146C13.2556 6.67986 13.372 6.6348 13.4546 6.53081Z" fill="#4F1818"/>
<path d="M14.2905 7.76682C14.4187 7.73207 14.5061 7.64303 14.4858 7.56794C14.4654 7.49286 14.345 7.46017 14.2168 7.49493C14.0886 7.52969 14.0012 7.61873 14.0216 7.69381C14.042 7.76889 14.1624 7.80158 14.2905 7.76682Z" fill="#4F1818"/>
<path d="M13.7051 7.25128C13.7835 7.14403 13.796 7.0199 13.7332 6.97402C13.6704 6.92814 13.556 6.97788 13.4776 7.08512C13.3993 7.19236 13.3867 7.31649 13.4496 7.36238C13.5124 7.40826 13.6268 7.35852 13.7051 7.25128Z" fill="#4F1818"/>
<path d="M14.1621 8.59743C14.2936 8.57936 14.3917 8.50223 14.3811 8.42513C14.3705 8.34804 14.2553 8.30019 14.1237 8.31825C13.9922 8.33631 13.8941 8.41345 13.9047 8.49054C13.9152 8.56763 14.0305 8.61549 14.1621 8.59743Z" fill="#4F1818"/>
<path d="M13.5533 12.0818C13.6641 12.1552 13.7887 12.162 13.8317 12.0971C13.8746 12.0322 13.8197 11.9202 13.7089 11.8469C13.5982 11.7736 13.4736 11.7667 13.4306 11.8316C13.3877 11.8965 13.4426 12.0085 13.5533 12.0818Z" fill="#4F1818"/>
<path d="M14.9206 9.12123C15.0522 9.1032 15.1503 9.02611 15.1397 8.94904C15.1292 8.87197 15.014 8.8241 14.8824 8.84212C14.7508 8.86015 14.6527 8.93723 14.6633 9.01431C14.6738 9.09138 14.7891 9.13925 14.9206 9.12123Z" fill="#4F1818"/>
<path d="M13.9825 10.8304C14.1106 10.8656 14.2312 10.8333 14.2519 10.7583C14.2725 10.6833 14.1853 10.5939 14.0572 10.5587C13.9291 10.5234 13.8085 10.5557 13.7878 10.6307C13.7672 10.7058 13.8544 10.7951 13.9825 10.8304Z" fill="#4F1818"/>
<path d="M14.1047 11.5717C14.2327 11.6069 14.3533 11.5746 14.3739 11.4996C14.3945 11.4245 14.3074 11.3352 14.1794 11.3C14.0513 11.2647 13.9308 11.297 13.9102 11.3721C13.8895 11.4471 13.9766 11.5365 14.1047 11.5717Z" fill="#4F1818"/>
<path d="M15.0374 10.2388C15.1682 10.2154 15.2631 10.1344 15.2494 10.0578C15.2358 9.98119 15.1187 9.93799 14.988 9.96131C14.8572 9.98463 14.7623 10.0656 14.776 10.1423C14.7896 10.2189 14.9067 10.2621 15.0374 10.2388Z" fill="#4F1818"/>
<path d="M10.5038 14.2595C10.5328 14.3891 10.6178 14.4805 10.6938 14.4635C10.7697 14.4465 10.8078 14.3277 10.7789 14.1981C10.7499 14.0685 10.6649 13.9771 10.5889 13.9941C10.513 14.0111 10.4749 14.1299 10.5038 14.2595Z" fill="#4F1818"/>
<path d="M13.3733 13.0966C13.4562 13.2004 13.5728 13.2452 13.6336 13.1966C13.6943 13.148 13.6764 13.0245 13.5934 12.9207C13.5105 12.8168 13.394 12.772 13.3332 12.8206C13.2724 12.8692 13.2903 12.9927 13.3733 13.0966Z" fill="#4F1818"/>
<path d="M11.5392 14.5779C11.5683 14.7074 11.6533 14.7985 11.7292 14.7815C11.8052 14.7645 11.8431 14.6457 11.8141 14.5162C11.785 14.3867 11.6999 14.2955 11.624 14.3126C11.5481 14.3296 11.5102 14.4484 11.5392 14.5779Z" fill="#4F1818"/>
<path d="M12.6325 13.3032C12.7072 13.413 12.82 13.4665 12.8843 13.4227C12.9486 13.3789 12.9402 13.2544 12.8654 13.1446C12.7907 13.0348 12.678 12.9813 12.6136 13.0251C12.5493 13.0689 12.5578 13.1934 12.6325 13.3032Z" fill="#4F1818"/>
<path d="M9.86226 14.2592C9.89131 14.3887 9.97642 14.4799 10.0523 14.4629C10.1283 14.4458 10.1663 14.327 10.1372 14.1975C10.1082 14.068 10.023 13.9768 9.94712 13.9939C9.87119 14.0109 9.8332 14.1297 9.86226 14.2592Z" fill="#4F1818"/>
<path d="M11.9785 13.9416C12.0288 14.0646 12.1279 14.1404 12.1999 14.1109C12.272 14.0815 12.2897 13.958 12.2394 13.835C12.1892 13.7121 12.09 13.6363 12.018 13.6657C11.946 13.6952 11.9283 13.8187 11.9785 13.9416Z" fill="#4F1818"/>
<path d="M8.7118 14.1641C8.65838 14.2857 8.67284 14.4096 8.74409 14.4409C8.81534 14.4722 8.9164 14.399 8.96981 14.2774C9.02323 14.1558 9.00877 14.0319 8.93752 14.0006C8.86627 13.9693 8.76521 14.0425 8.7118 14.1641Z" fill="#4F1818"/>
<path d="M9.29027 14.0292C9.32449 14.1576 9.41319 14.2455 9.48838 14.2254C9.56358 14.2054 9.59679 14.0851 9.56257 13.9566C9.52835 13.8282 9.43965 13.7404 9.36446 13.7604C9.28926 13.7804 9.25605 13.9008 9.29027 14.0292Z" fill="#4F1818"/>
<path d="M7.95458 13.8946C7.88602 14.0084 7.88448 14.1331 7.95113 14.1733C8.01778 14.2135 8.12738 14.1538 8.19594 14.0401C8.26449 13.9263 8.26604 13.8015 8.19939 13.7614C8.13274 13.7212 8.02313 13.7809 7.95458 13.8946Z" fill="#4F1818"/>
<path d="M7.37804 13.6465C7.30946 13.7603 7.30783 13.885 7.3744 13.9251C7.44096 13.9653 7.55053 13.9056 7.61911 13.7919C7.68769 13.6781 7.68932 13.5534 7.62275 13.5133C7.55619 13.4731 7.44662 13.5328 7.37804 13.6465Z" fill="#4F1818"/>
<path d="M6.43261 12.5915C6.32476 12.669 6.27413 12.7831 6.31952 12.8462C6.3649 12.9093 6.48912 12.8976 6.59697 12.82C6.70481 12.7424 6.75544 12.6284 6.71006 12.5653C6.66467 12.5022 6.54045 12.5139 6.43261 12.5915Z" fill="#4F1818"/>
<path d="M6.61774 13.4307C6.55383 13.547 6.5573 13.6717 6.62551 13.7092C6.69372 13.7467 6.80082 13.6827 6.86474 13.5664C6.92865 13.45 6.92518 13.3253 6.85697 13.2879C6.78876 13.2504 6.68166 13.3143 6.61774 13.4307Z" fill="#4F1818"/>
<path d="M6.37341 12.0143C6.25859 12.081 6.1972 12.1896 6.23629 12.2569C6.27539 12.3242 6.40016 12.3246 6.51499 12.2579C6.62982 12.1912 6.69121 12.0825 6.65211 12.0153C6.61302 11.948 6.48824 11.9475 6.37341 12.0143Z" fill="#4F1818"/>
<path d="M5.67189 11.4862C5.55714 11.5529 5.49581 11.6615 5.5349 11.7288C5.574 11.7961 5.69871 11.7965 5.81347 11.7299C5.92822 11.6632 5.98955 11.5546 5.95045 11.4873C5.91136 11.42 5.78664 11.4195 5.67189 11.4862Z" fill="#4F1818"/>
<path d="M5.38466 9.88937C5.25262 9.87507 5.13879 9.92619 5.13041 10.0036C5.12203 10.0809 5.22227 10.1552 5.35431 10.1695C5.48635 10.1838 5.60018 10.1327 5.60856 10.0554C5.61694 9.97799 5.5167 9.90368 5.38466 9.88937Z" fill="#4F1818"/>
<path d="M5.948 10.759C5.83594 10.8303 5.77894 10.9413 5.8207 11.007C5.86245 11.0726 5.98715 11.0681 6.09921 10.9968C6.21128 10.9256 6.26827 10.8146 6.22652 10.7489C6.18476 10.6832 6.06006 10.6878 5.948 10.759Z" fill="#4F1818"/>
<path d="M5.63485 9.2809C5.50574 9.24978 5.38629 9.28588 5.36806 9.36154C5.34983 9.43719 5.43972 9.52375 5.56883 9.55486C5.69794 9.58598 5.81739 9.54988 5.83562 9.47422C5.85386 9.39857 5.76397 9.31202 5.63485 9.2809Z" fill="#4F1818"/>
<path d="M5.52595 8.39816C5.39684 8.36701 5.27739 8.40307 5.25913 8.47872C5.24087 8.55436 5.33073 8.64094 5.45984 8.6721C5.58894 8.70326 5.7084 8.66719 5.72666 8.59155C5.74492 8.5159 5.65505 8.42932 5.52595 8.39816Z" fill="#4F1818"/>
<path d="M6.78796 7.15002C6.68146 7.07054 6.55739 7.05666 6.51085 7.11902C6.4643 7.18138 6.51291 7.29637 6.61941 7.37586C6.72592 7.45534 6.84999 7.46922 6.89653 7.40686C6.94307 7.3445 6.89446 7.22951 6.78796 7.15002Z" fill="#4F1818"/>
<path d="M5.63572 7.57347C5.50547 7.54759 5.38758 7.58848 5.37241 7.6648C5.35724 7.74112 5.45054 7.82398 5.5808 7.84986C5.71106 7.87575 5.82895 7.83486 5.84411 7.75853C5.85928 7.68221 5.76598 7.59936 5.63572 7.57347Z" fill="#4F1818"/>
</svg>
