<svg width="20" height="20" viewBox="0 0 20 20" fill="none" xmlns="http://www.w3.org/2000/svg">
<g id="information 1">
<g id="Group">
<g id="Group_2">
<g id="Group_3">
<path id="Vector" d="M10 5.74219C10.4315 5.74219 10.7812 5.39241 10.7812 4.96094C10.7812 4.52947 10.4315 4.17969 10 4.17969C9.56853 4.17969 9.21875 4.52947 9.21875 4.96094C9.21875 5.39241 9.56853 5.74219 10 5.74219Z" fill="#0A8270"/>
<path id="Vector_2" d="M17.0711 2.92891C15.1823 1.0402 12.6711 0 10 0C7.32891 0 4.8177 1.0402 2.92891 2.92891C1.0402 4.8177 0 7.32891 0 10C0 12.6711 1.0402 15.1823 2.92891 17.0711C4.8177 18.9598 7.32891 20 10 20C11.8286 20 13.6179 19.5016 15.1743 18.5589C15.5433 18.3353 15.6612 17.8549 15.4377 17.4859C15.2141 17.1168 14.7338 16.9989 14.3647 17.2224C13.0525 18.0173 11.5432 18.4375 10 18.4375C5.34754 18.4375 1.5625 14.6525 1.5625 10C1.5625 5.34754 5.34754 1.5625 10 1.5625C14.6525 1.5625 18.4375 5.34754 18.4375 10C18.4375 11.6636 17.9428 13.283 17.0068 14.683C16.767 15.0416 16.8633 15.5268 17.222 15.7666C17.5807 16.0064 18.0659 15.9101 18.3057 15.5514C19.4141 13.8935 20 11.9738 20 10C20 7.32891 18.9598 4.8177 17.0711 2.92891Z" fill="#0A8270"/>
<path id="Vector_3" d="M10 7.30469C9.56852 7.30469 9.21875 7.65445 9.21875 8.08594V15.0391C9.21875 15.4705 9.56852 15.8203 10 15.8203C10.4315 15.8203 10.7812 15.4705 10.7812 15.0391V8.08594C10.7812 7.65445 10.4315 7.30469 10 7.30469Z" fill="#0A8270"/>
</g>
</g>
</g>
</g>
</svg>
