<svg width="50" height="50" viewBox="0 0 50 50" fill="none" xmlns="http://www.w3.org/2000/svg">
<path d="M39.6446 6.06602C35.6007 2.02197 30.3003 0 25 0L23.0453 20.6961L25 50L39.6446 35.3554C47.7327 27.2673 47.7327 14.1541 39.6446 6.06602Z" fill="#27A09E"/>
<path d="M10.3554 6.06602C2.26729 14.1541 2.26729 27.2673 10.3554 35.3554L25 50V0C19.6997 0 14.3994 2.02197 10.3554 6.06602Z" fill="#27A09E"/>
<path d="M25 4.84073L23.0453 20.7107L25 36.5806C33.7507 36.5806 40.8699 29.4613 40.8699 20.7107C40.8699 11.96 33.7507 4.84073 25 4.84073Z" fill="#30CE88"/>
<path d="M9.13007 20.7107C9.13007 29.4613 16.2493 36.5806 25 36.5806V4.84073C16.2493 4.84073 9.13007 11.96 9.13007 20.7107Z" fill="#30CE88"/>
<path d="M25 7.77042L23.0453 20.7107L25 33.6509C32.1353 33.6509 37.9402 27.8459 37.9402 20.7107C37.9402 13.5754 32.1353 7.77042 25 7.77042Z" fill="#EBEBF0"/>
<path d="M12.0598 20.7107C12.0598 27.8459 17.8647 33.6509 25 33.6509V7.77042C17.8647 7.77042 12.0598 13.5754 12.0598 20.7107Z" fill="#FFF5F5"/>
<path d="M23.9219 21.6254L25 29.5854C25 29.5854 30.7621 25.612 30.7621 20.7107C30.7621 19.6356 30.4848 18.6052 30.052 17.6516L23.9219 21.6254Z" fill="#009986"/>
<path d="M19.948 17.6516C19.5152 18.6052 19.2379 19.6356 19.2379 20.7107C19.2379 25.612 25 29.5854 25 29.5854V21.6255L19.948 17.6516Z" fill="#00CC76"/>
<path d="M30.0519 17.6516C28.5115 14.2575 25 11.8359 25 11.8359L23.9219 17.0481L25 22.7034L30.0519 17.6516Z" fill="#00CC76"/>
<path d="M25 11.8359C25 11.8359 21.4885 14.2574 19.9481 17.6515L25 22.7035V11.8359Z" fill="#A5E887"/>
</svg>
