<svg width="279" height="279" viewBox="0 0 279 279" fill="none" xmlns="http://www.w3.org/2000/svg">
    <g clip-path="url(#clip0)">
        <g opacity="0.2">
            <path opacity="0.2"
                d="M272.025 205.763C272.025 230.408 252.03 250.403 227.385 250.403C202.74 250.403 182.745 230.408 182.745 205.763C182.745 184.373 216.69 145.313 225.293 135.548C226.455 134.385 228.315 134.385 229.245 135.548C238.313 145.313 272.025 184.373 272.025 205.763Z"
                fill="#BBEC6C" />
            <path opacity="0.2"
                d="M281.325 205.065C281.093 200.182 276.908 196.23 272.025 196.23C266.91 196.23 262.958 200.647 262.958 205.53V205.762C262.958 222.037 251.798 235.755 236.685 239.707V158.332C240.638 163.215 244.823 169.027 248.775 174.607C251.565 178.792 257.378 179.955 261.563 177.165C265.748 174.375 266.91 168.562 264.12 164.377C253.658 148.8 241.335 134.617 236.453 129.27C234.128 126.712 230.873 125.318 227.618 125.318C224.363 125.318 221.108 126.712 218.783 129.27C205.298 144.382 173.91 181.815 173.91 205.53C173.91 232.035 193.208 254.122 218.55 258.54V267.142C218.55 272.257 222.735 276.442 227.85 276.442C232.965 276.442 237.15 272.257 237.15 267.142V258.54C262.493 254.122 281.79 232.035 281.79 205.53C281.325 205.53 281.325 205.297 281.325 205.065ZM192.045 205.762C192.045 195.532 203.903 176.7 218.318 158.332V239.94C203.205 235.987 192.045 222.037 192.045 205.762Z"
                fill="black" />
        </g>
        <path
            d="M108.345 127.642L95.3249 117.18C91.8374 114.39 91.3724 109.507 94.1624 106.02C96.9524 102.532 101.835 102.067 105.322 104.857L108.345 107.415L134.617 130.2L126.015 143.917L108.345 127.642Z"
            fill="#FDDEB0" />
        <path
            d="M112.995 122.992L99.9748 112.53C97.1848 110.205 96.4873 106.717 97.6498 103.462C96.4873 103.927 95.3248 104.857 94.3948 105.787C91.6048 109.275 92.0698 114.157 95.5573 116.947L108.577 127.41L126.247 143.452L129.735 137.872L112.995 122.992Z"
            fill="#FDD79B" />
        <path
            d="M190.185 81.6075C190.185 75.33 185.07 69.9825 178.56 69.9825H119.97C113.692 69.9825 108.345 75.0975 108.345 81.6075V202.973C108.345 209.25 113.46 214.598 119.97 214.598H176.932C184.372 214.598 190.185 208.552 190.185 201.345V81.6075Z"
            fill="#B5ADB6" />
        <path
            d="M139.035 199.485C132.757 199.485 127.41 194.37 127.41 187.86V69.9825H119.737C113.46 69.9825 108.112 75.0975 108.112 81.6075V202.973C108.112 209.25 113.227 214.598 119.737 214.598H176.7C184.14 214.598 189.952 208.552 189.952 201.345V199.485H139.035Z"
            fill="#A79BA7" />
        <path
            d="M180.187 124.852C178.095 122.76 175.072 121.365 172.05 121.365C168.795 121.365 165.772 122.76 163.68 125.085L162.982 125.782C156.007 133.687 155.775 145.312 162.285 153.682L173.91 168.795L161.355 190.882C157.402 197.625 156.24 205.53 157.867 213.202L158.1 214.365H176.932C184.372 214.365 190.185 208.32 190.185 201.112V135.315L180.187 124.852Z"
            fill="#A79BA7" />
        <path
            d="M179.722 81.6075C179.722 81.1425 179.257 80.6775 178.792 80.6775H171.817C170.422 80.6775 169.26 81.375 168.33 82.5375C166.702 85.095 163.68 86.955 160.425 86.955H138.57C135.315 86.955 132.292 85.3275 130.665 82.5375C129.967 81.375 128.572 80.6775 127.177 80.6775H119.97C119.505 80.6775 119.04 81.1425 119.04 81.6075V202.973C119.04 203.438 119.505 203.902 119.97 203.902H179.722V81.6075Z"
            fill="#C8EFFE" />
        <path
            d="M179.723 203.902V199.485H139.035C132.757 199.485 127.41 194.37 127.41 187.86V80.6775C127.177 80.6775 127.177 80.6775 126.945 80.6775H119.737C119.272 80.6775 118.807 81.1425 118.807 81.6075V202.973C118.807 203.438 119.272 203.902 119.737 203.902H179.723Z"
            fill="#99E6FC" />
        <path
            d="M157.402 203.903H179.722V124.155C177.63 122.295 175.072 121.133 172.282 121.133C169.027 121.133 166.005 122.528 163.912 124.853L163.215 125.55C156.24 133.455 156.007 145.08 162.517 153.45L174.142 168.563L161.587 190.65C159.03 194.835 157.867 199.253 157.402 203.903Z"
            fill="#99E6FC" />
        <path
            d="M247.38 239.475L219.015 205.995C218.085 204.832 217.387 203.437 217.387 201.81V188.325C217.387 179.49 214.132 171.12 208.087 164.61L175.072 129.502C173.445 127.875 170.655 127.875 169.027 129.502L168.33 130.2C163.68 135.547 163.447 143.452 167.865 149.032L180.187 164.61C181.582 166.47 181.815 169.027 180.652 171.12L167.632 194.137C164.61 199.485 163.68 205.762 164.842 211.575L165.772 216.225C167.865 226.455 176.002 234.36 186.465 235.987L191.115 242.032C191.812 242.962 192.742 243.427 193.672 243.427H245.52C247.612 243.892 248.775 241.102 247.38 239.475Z"
            fill="#FDDEB0" />
        <path
            d="M116.25 155.077L103.927 145.08C100.44 142.29 99.9748 137.407 102.765 133.92L103.462 132.99C106.252 129.503 111.135 129.038 114.622 131.828L126.945 141.825C130.432 144.615 130.897 149.498 128.107 152.985L127.41 153.915C124.62 157.402 119.505 157.867 116.25 155.077Z"
            fill="#FDDEB0" />
        <path
            d="M119.737 150.66L107.415 140.662C104.625 138.337 103.695 134.617 105.09 131.595C104.392 132.06 103.927 132.525 103.462 133.222L102.765 134.152C99.9748 137.64 100.44 142.522 103.927 145.312L116.25 155.31C119.737 158.1 124.62 157.635 127.41 154.147L128.107 153.217C128.572 152.52 129.037 151.822 129.27 151.125C126.48 152.985 122.527 152.985 119.737 150.66Z"
            fill="#FDD79B" />
        <path
            d="M112.297 172.05L100.905 162.75C97.4175 159.96 96.9525 155.078 99.7425 151.59L99.975 151.125C102.765 147.638 107.647 147.173 111.135 149.963L122.527 159.263C126.015 162.053 126.48 166.935 123.69 170.423L123.225 170.888C120.667 174.375 115.785 174.84 112.297 172.05Z"
            fill="#FDDEB0" />
        <path
            d="M116.947 167.4L105.555 158.1C102.765 155.775 101.835 152.055 103.23 148.8C102.067 149.265 100.905 149.962 99.9749 151.125L99.5099 151.59C96.7199 155.077 97.1849 159.96 100.672 162.75L112.065 172.05C115.552 174.84 120.435 174.375 123.225 170.887L123.69 170.422C124.155 169.725 124.62 169.26 124.852 168.562C122.295 169.725 119.272 169.26 116.947 167.4Z"
            fill="#FDD79B" />
        <path
            d="M108.81 189.952L96.7199 179.955C93.2324 177.165 92.7674 172.282 95.5574 168.795L96.2549 168.097C99.0449 164.61 103.927 164.145 107.415 166.935L119.505 176.932C122.992 179.722 123.457 184.605 120.667 188.092L119.97 188.79C117.18 192.277 112.297 192.742 108.81 189.952Z"
            fill="#FDDEB0" />
        <path
            d="M114.39 184.373L102.067 174.375C99.5099 172.283 98.5799 168.795 99.5099 165.773C98.1149 166.238 96.9524 167.168 96.0224 168.33L95.3249 169.028C92.5349 172.515 92.9999 177.398 96.4874 180.188L108.577 190.185C112.065 192.975 116.947 192.51 119.737 189.023L120.435 188.325C121.132 187.628 121.597 186.698 121.83 185.768C119.505 186.465 116.482 186 114.39 184.373Z"
            fill="#FDD79B" />
        <path
            d="M162.052 117.18C162.052 124.155 156.24 129.967 149.265 129.967C142.29 129.967 136.477 124.155 136.477 117.18C136.477 110.902 146.242 99.7425 148.8 96.9525C149.032 96.72 149.73 96.72 149.962 96.9525C152.287 99.7425 162.052 110.902 162.052 117.18Z"
            fill="#BBEC6C" />
        <path
            d="M159.727 183.907H138.57C136.942 183.907 135.547 182.512 135.547 180.885V171.585C135.547 169.958 136.942 168.562 138.57 168.562H159.727C161.355 168.562 162.75 169.958 162.75 171.585V180.885C162.75 182.745 161.355 183.907 159.727 183.907Z"
            fill="#99E6FC" />
        <path
            d="M200.415 235.755C199.252 234.127 197.625 232.965 195.532 232.5C186.465 229.942 179.722 222.735 177.63 213.435L176.7 207.39C175.537 202.275 176.467 196.695 179.025 192.277L190.882 171.352C193.207 167.4 192.742 162.517 189.952 158.797L178.327 143.917C175.537 140.43 175.072 135.547 177.165 131.827L175.072 129.735C173.445 128.107 170.655 128.107 169.027 129.735L168.33 130.432C163.68 135.78 163.447 143.685 167.865 149.265L180.187 164.842C181.582 166.702 181.815 169.26 180.652 171.352L167.632 194.37C164.61 199.717 163.68 205.995 164.842 211.807L165.772 216.457C167.865 226.687 176.002 234.592 186.465 236.22L191.115 242.265C191.812 243.195 192.742 243.66 193.672 243.66H206.46L200.415 235.755Z"
            fill="#FDD79B" />
        <path
            d="M154.612 211.807H119.97C115.087 211.807 111.135 207.855 111.135 202.973V193.207C111.832 193.44 112.762 193.44 113.46 193.44C113.925 193.44 114.157 193.44 114.622 193.44C115.32 193.44 115.785 193.207 116.482 193.207V202.973C116.482 205.065 118.11 206.46 119.97 206.46H153.915C155.31 206.46 156.472 205.298 156.472 203.902C156.472 202.507 155.31 201.345 153.915 201.345H121.597V189.72C125.085 185.535 124.62 179.257 120.667 175.537C122.295 174.84 123.922 173.91 125.085 172.282C128.572 168.097 128.107 161.82 124.155 158.1C125.782 157.402 127.41 156.472 128.572 154.845C132.292 150.427 131.595 143.685 126.945 139.965L121.132 135.315V102.3C121.132 100.905 119.97 99.7425 118.575 99.7425C117.18 99.7425 116.25 100.905 116.25 102.3V130.665C114.622 129.502 112.762 128.805 110.902 128.572V81.6075C110.902 76.725 114.855 72.7725 119.737 72.7725H178.56C183.442 72.7725 187.395 76.725 187.395 81.6075V130.2C187.395 131.595 188.557 132.757 189.952 132.757C191.347 132.757 192.51 131.595 192.51 130.2V81.6075C192.51 73.7025 186.232 67.425 178.327 67.425H119.97C112.065 67.425 105.787 73.7025 105.787 81.6075V101.835C101.37 99.2775 95.5575 100.207 92.3025 104.16C90.4425 106.252 89.745 109.042 89.9775 111.832C90.21 114.622 91.605 117.18 93.93 119.04L106.02 128.805V129.502C104.392 130.2 103.23 131.13 102.067 132.525C100.207 134.617 99.51 137.407 99.7425 140.197C99.975 142.755 101.137 145.08 102.997 146.707C101.37 147.405 99.7425 148.567 98.58 149.963C95.0925 154.147 95.5575 160.425 99.51 164.145C97.8825 164.842 96.255 165.772 95.0925 167.4C93.2325 169.493 92.535 172.283 92.7675 175.073C93 177.863 94.395 180.42 96.72 182.28L106.485 190.185V202.74C106.485 210.645 112.762 216.923 120.667 216.923H155.31C156.705 216.923 157.867 215.76 157.867 214.365C157.17 212.97 156.007 211.807 154.612 211.807ZM96.9525 115.087C95.79 114.157 95.0925 112.995 95.0925 111.6C94.86 110.205 95.325 108.81 96.255 107.647C98.115 105.322 101.37 105.09 103.695 106.95L105.787 108.577V122.295L96.9525 115.087ZM105.787 136.012C106.717 134.85 107.88 134.152 109.275 134.152C110.67 133.92 112.065 134.385 113.227 135.315L123.922 143.918C125.085 144.848 125.782 146.01 125.782 147.405C126.015 148.8 125.55 150.195 124.62 151.357C123.69 152.52 122.527 153.217 121.132 153.217C119.737 153.45 118.575 152.985 117.412 152.055L106.485 143.22C105.322 142.29 104.625 141.127 104.625 139.732C104.625 138.337 105.09 136.942 105.787 136.012ZM102.3 153.45C104.16 151.125 107.415 150.892 109.507 152.52L120.435 161.355C122.76 163.215 122.992 166.47 121.132 168.795C119.272 171.12 116.017 171.353 113.925 169.725L102.997 160.89C100.672 159.03 100.44 155.542 102.3 153.45ZM97.4175 174.84C97.185 173.445 97.65 172.05 98.58 170.887C100.44 168.562 103.695 168.33 105.787 169.957L116.715 178.793C119.04 180.653 119.272 183.908 117.412 186.232C116.482 187.395 115.32 188.093 113.925 188.093C112.53 188.325 111.135 187.86 109.972 186.93L99.2775 178.327C98.3475 177.397 97.65 176.235 97.4175 174.84Z"
            fill="black" />
        <path
            d="M253.192 242.032L220.875 204.367C220.41 203.67 219.945 202.74 219.945 202.042V188.325C219.945 178.792 216.457 169.725 209.715 162.75L176.932 127.875C175.537 126.48 173.91 125.782 172.05 125.782C170.19 125.782 168.33 126.712 167.167 128.107L166.47 128.805C160.89 135.082 160.657 144.382 165.772 150.892L178.095 166.47C178.792 167.4 179.025 168.795 178.327 169.957L171.352 182.047C170.655 183.21 171.12 184.837 172.282 185.535C173.445 186.232 175.072 185.767 175.77 184.605L182.745 172.515C184.372 169.492 184.14 165.772 182.047 163.215L169.725 147.637C166.237 142.987 166.237 136.477 170.19 132.06L170.887 131.362C171.352 130.897 171.585 130.897 171.817 130.897C172.05 130.897 172.515 130.897 172.747 131.362L205.762 166.47C211.342 172.515 214.365 180.187 214.365 188.325V201.81C214.365 203.902 215.062 205.995 216.457 207.622L248.542 245.52C249.007 246.217 249.705 246.45 250.635 246.45C251.332 246.45 251.797 246.217 252.262 245.752C253.89 244.822 254.122 243.195 253.192 242.032Z"
            fill="black" />
        <path
            d="M188.557 234.825C188.092 234.36 187.627 233.895 186.93 233.895C177.862 232.5 170.422 225.292 168.562 216.225L167.632 211.575C166.47 206.227 167.4 200.647 170.19 195.997L170.655 195.067C171.352 193.905 170.887 192.277 169.725 191.58C168.562 190.882 166.935 191.347 166.237 192.51L165.307 192.975C162.052 198.787 160.89 205.762 162.285 212.272L163.215 216.922C165.54 227.85 174.142 236.452 185.07 238.545L190.185 245.287C190.65 245.985 191.58 246.217 192.277 246.217C192.742 246.217 193.44 245.985 193.905 245.752C195.067 244.822 195.3 243.195 194.37 242.032L188.557 234.825Z"
            fill="black" />
        <path
            d="M179.723 122.527C181.118 122.527 182.28 121.365 182.28 119.97V81.6075C182.28 79.515 180.653 78.12 178.793 78.12H171.818C169.493 78.12 167.4 79.2825 166.238 81.1425C165.075 83.0025 162.75 84.3975 160.425 84.3975H138.57C136.245 84.3975 134.153 83.235 132.758 81.1425C131.595 79.2825 129.503 78.12 127.178 78.12H119.97C117.878 78.12 116.483 79.7475 116.483 81.6075V91.14C116.483 92.535 117.645 93.6975 119.04 93.6975C120.435 93.6975 121.598 92.535 121.598 91.14V83.4675H127.178C127.643 83.4675 128.108 83.7 128.34 84.165C130.665 87.6525 134.385 89.745 138.57 89.745H160.425C164.61 89.745 168.33 87.6525 170.655 84.165C170.888 83.7 171.353 83.4675 171.818 83.4675H177.165V120.202C176.933 121.365 178.095 122.527 179.723 122.527Z"
            fill="black" />
        <path
            d="M164.843 116.947C164.843 115.552 163.68 114.39 162.053 114.39C160.658 114.39 159.495 115.552 159.495 117.18C159.495 121.83 156.24 125.782 152.055 126.945V103.462C153.218 104.857 154.38 106.485 155.543 108.112C156.473 109.275 158.1 109.74 159.263 108.81C160.425 107.88 160.89 106.252 159.96 105.09C156.938 100.672 153.45 96.4875 152.055 95.0925C151.358 94.395 150.428 93.93 149.498 93.93C148.568 93.93 147.638 94.395 146.94 95.0925C142.988 99.51 133.92 110.205 133.92 116.947C133.92 124.62 139.5 130.897 146.708 132.06V134.85C146.708 136.245 147.87 137.407 149.265 137.407C150.66 137.407 151.823 136.245 151.823 134.85V132.292C159.263 131.13 164.843 124.62 164.843 116.947ZM139.035 117.18C139.035 114.157 142.523 108.81 146.475 103.462V126.945C142.29 125.782 139.035 121.83 139.035 117.18Z"
            fill="black" />
        <path
            d="M165.308 181.117V171.817C165.308 168.795 162.75 166.237 159.728 166.237H138.57C135.547 166.237 132.99 168.795 132.99 171.817V181.117C132.99 184.14 135.547 186.697 138.57 186.697H159.728C162.983 186.697 165.308 184.14 165.308 181.117ZM160.193 181.117C160.193 181.35 159.96 181.35 159.96 181.35H138.802C138.57 181.35 138.57 181.117 138.57 181.117V171.817C138.57 171.585 138.802 171.585 138.802 171.585H159.96C160.193 171.585 160.193 171.817 160.193 171.817V181.117Z"
            fill="black" />
        <path
            d="M134.333 157.587C134.333 158.982 135.496 160.145 136.891 160.145H161.303C162.698 160.145 163.861 158.982 163.861 157.587C163.861 156.192 162.698 155.03 161.303 155.03H136.891C135.496 154.797 134.333 155.96 134.333 157.587Z"
            fill="black" />
        <path
            d="M156.705 80.6775C158.1 80.6775 159.262 79.515 159.262 78.12C159.262 76.725 158.1 75.5625 156.705 75.5625H142.057C140.662 75.5625 139.5 76.725 139.5 78.12C139.5 79.515 140.662 80.6775 142.057 80.6775H156.705Z"
            fill="black" />
        <path d="M59.2875 175.538L134.85 127.875" stroke="black" stroke-miterlimit="10"
            stroke-linecap="round" stroke-linejoin="round" />
        <path d="M159.262 101.137L234.825 53.475" stroke="black" stroke-miterlimit="10"
            stroke-linecap="round" stroke-linejoin="round" />
        <path d="M70.9125 66.2625L133.687 105.09" stroke="black" stroke-miterlimit="10"
            stroke-linecap="round" stroke-linejoin="bevel" />
        <path d="M29.0625 22.0875H73.2375" stroke="black" stroke-width="2" stroke-miterlimit="10"
            stroke-linecap="round" />
        <path d="M26.7375 31.3875H52.3125" stroke="#666666" stroke-width="0.5"
            stroke-miterlimit="10" stroke-linecap="round" />
        <path d="M26.7375 36.0375H73.2375" stroke="#666666" stroke-width="0.5"
            stroke-miterlimit="10" stroke-linecap="round" />
        <path d="M26.7375 40.6875H61.6125" stroke="#666666" stroke-width="0.5"
            stroke-miterlimit="10" stroke-linecap="round" />
        <path d="M26.7375 45.3375H52.3125" stroke="#666666" stroke-width="0.5"
            stroke-miterlimit="10" stroke-linecap="round" />
        <path d="M219.713 24.4125H263.888" stroke="black" stroke-width="2" stroke-miterlimit="10"
            stroke-linecap="round" />
        <path d="M217.387 33.7125H242.962" stroke="#666666" stroke-width="0.5"
            stroke-miterlimit="10" stroke-linecap="round" />
        <path d="M217.387 38.3625H263.887" stroke="#666666" stroke-width="0.5"
            stroke-miterlimit="10" stroke-linecap="round" />
        <path d="M217.387 43.0125H252.262" stroke="#666666" stroke-width="0.5"
            stroke-miterlimit="10" stroke-linecap="round" />
        <path d="M217.387 47.6625H242.962" stroke="#666666" stroke-width="0.5"
            stroke-miterlimit="10" stroke-linecap="round" />
        <path d="M40.6875 187.162H84.8625" stroke="black" stroke-width="2" stroke-miterlimit="10"
            stroke-linecap="round" />
        <path d="M38.3625 196.462H63.9375" stroke="#666666" stroke-width="0.5"
            stroke-miterlimit="10" stroke-linecap="round" />
        <path d="M38.3625 201.112H84.8626" stroke="#666666" stroke-width="0.5"
            stroke-miterlimit="10" stroke-linecap="round" />
        <path d="M38.3625 205.763H73.2375" stroke="#666666" stroke-width="0.5"
            stroke-miterlimit="10" stroke-linecap="round" />
        <path d="M38.3625 210.413H63.9375" stroke="#666666" stroke-width="0.5"
            stroke-miterlimit="10" stroke-linecap="round" />
        <path
            d="M32.55 186.465C32.55 186.232 32.3175 186 31.8525 186C7.20752 186 4.65002 196.23 4.65002 200.648C4.65002 206.227 9.06752 210.18 15.345 210.18C23.4825 210.18 25.11 202.507 26.04 198.323C26.97 194.138 29.0625 190.185 32.3175 187.162C32.55 186.93 32.55 186.697 32.55 186.465Z"
            fill="#4CAF50" />
        <path
            d="M5.34752 213.9C4.88252 213.9 4.65002 213.667 4.65002 213.202C4.65002 209.482 11.16 197.392 21.39 192.277C21.6225 192.045 22.0875 192.277 22.32 192.51C22.5525 192.742 22.32 193.207 22.0875 193.44C11.625 198.555 6.04502 210.18 6.04502 213.202C5.81252 213.667 5.58002 213.9 5.34752 213.9Z"
            fill="#388E3C" />
    </g>
    <defs>
        <clipPath id="clip0">
            <rect width="279" height="279" fill="white" />
        </clipPath>
    </defs>
</svg>
