<svg width="38" height="38" viewBox="0 0 38 38" fill="none" xmlns="http://www.w3.org/2000/svg">
<path d="M38 29.5577V13.1458C38 10.5422 35.8846 8.42682 33.281 8.42682H27.5547L27.4772 8.10137C26.8495 5.39705 24.4706 3.50635 21.6888 3.50635H16.3112C13.5294 3.50635 11.1505 5.39705 10.5228 8.10137L10.4454 8.42682H4.71901C2.11542 8.42682 0 10.5422 0 13.1458V29.5577C0 32.2776 2.21615 34.4937 4.93597 34.4937H33.0485C35.7839 34.5015 38 32.2853 38 29.5577ZM35.3422 29.5577C35.3422 30.813 34.3193 31.8359 33.064 31.8359H4.94372C3.68842 31.8359 2.66558 30.813 2.66558 29.5577V13.1458C2.66558 12.0145 3.58768 11.0847 4.72675 11.0847H11.5069C12.1268 11.0847 12.6615 10.6585 12.801 10.0541L13.1187 8.70578C13.4674 7.21026 14.7847 6.16418 16.3189 6.16418H21.6966C23.2308 6.16418 24.5481 7.21026 24.8968 8.70578L25.2145 10.0541C25.354 10.6585 25.8887 11.0847 26.5086 11.0847H33.2887C34.4201 11.0847 35.3499 12.0068 35.3499 13.1458V29.5577H35.3422Z" fill="white"/>
<path d="M19 13.2931C14.4747 13.2931 10.7863 16.9738 10.7863 21.5068C10.7863 26.0321 14.467 29.7205 19 29.7205C23.5253 29.7205 27.2137 26.0398 27.2137 21.5068C27.206 16.9815 23.5253 13.2931 19 13.2931ZM19 27.0549C15.9392 27.0549 13.4441 24.5676 13.4441 21.499C13.4441 18.4383 15.9315 15.9432 19 15.9432C22.0608 15.9432 24.5559 18.4305 24.5559 21.499C24.5481 24.5676 22.0608 27.0549 19 27.0549Z" fill="white"/>
<path d="M6.30751 13.2931H6.26102C5.52488 13.2931 4.93597 13.8897 4.93597 14.6259C4.93597 15.362 5.53263 15.9509 6.26102 15.9509H6.30751C7.04364 15.9509 7.6403 15.3543 7.6403 14.6259C7.63255 13.8897 7.03589 13.2931 6.30751 13.2931Z" fill="white"/>
</svg>
