<svg width="35" height="35" viewBox="0 0 35 35" fill="none" xmlns="http://www.w3.org/2000/svg">
    <rect width="35" height="35" rx="7" fill="#ACF0A2" />
    <path
        d="M18 13.7422C18.4315 13.7422 18.7812 13.3924 18.7812 12.9609C18.7812 12.5295 18.4315 12.1797 18 12.1797C17.5685 12.1797 17.2188 12.5295 17.2188 12.9609C17.2188 13.3924 17.5685 13.7422 18 13.7422Z"
        fill="white" />
    <path
        d="M25.0711 10.9289C23.1823 9.0402 20.6711 8 18 8C15.3289 8 12.8177 9.0402 10.9289 10.9289C9.0402 12.8177 8 15.3289 8 18C8 20.6711 9.0402 23.1823 10.9289 25.0711C12.8177 26.9598 15.3289 28 18 28C19.8286 28 21.6179 27.5016 23.1743 26.5589C23.5433 26.3353 23.6612 25.8549 23.4377 25.4859C23.2141 25.1168 22.7338 24.9989 22.3647 25.2224C21.0525 26.0173 19.5432 26.4375 18 26.4375C13.3475 26.4375 9.5625 22.6525 9.5625 18C9.5625 13.3475 13.3475 9.5625 18 9.5625C22.6525 9.5625 26.4375 13.3475 26.4375 18C26.4375 19.6636 25.9428 21.283 25.0068 22.683C24.767 23.0416 24.8633 23.5268 25.222 23.7666C25.5807 24.0064 26.0659 23.9101 26.3057 23.5514C27.4141 21.8935 28 19.9738 28 18C28 15.3289 26.9598 12.8177 25.0711 10.9289Z"
        fill="white" />
    <path
        d="M18 15.3047C17.5685 15.3047 17.2188 15.6545 17.2188 16.0859V23.0391C17.2188 23.4705 17.5685 23.8203 18 23.8203C18.4315 23.8203 18.7812 23.4705 18.7812 23.0391V16.0859C18.7812 15.6545 18.4315 15.3047 18 15.3047Z"
        fill="white" />
</svg>
