<svg width="35" height="35" viewBox="0 0 35 35" fill="none" xmlns="http://www.w3.org/2000/svg">
    <rect width="35" height="35" rx="7" fill="#0B99A7" />
    <path
        d="M21.768 16.5938C21.768 16.1623 21.4182 15.8125 20.9867 15.8125H12.9398C12.5083 15.8125 12.1586 16.1623 12.1586 16.5938C12.1586 17.0252 12.5083 17.375 12.9398 17.375H20.9867C21.4182 17.375 21.768 17.0252 21.768 16.5938Z"
        fill="white" />
    <path
        d="M12.9398 18.9375C12.5083 18.9375 12.1586 19.2873 12.1586 19.7188C12.1586 20.1502 12.5083 20.5 12.9398 20.5H17.827C18.2584 20.5 18.6082 20.1502 18.6082 19.7188C18.6082 19.2873 18.2584 18.9375 17.827 18.9375H12.9398Z"
        fill="white" />
    <path
        d="M14.7758 26.4375H12.1629C11.3013 26.4375 10.6004 25.7366 10.6004 24.875V11.125C10.6004 10.2634 11.3013 9.5625 12.1629 9.5625H21.7679C22.6295 9.5625 23.3304 10.2634 23.3304 11.125V15.9297C23.3304 16.3612 23.6802 16.7109 24.1117 16.7109C24.5432 16.7109 24.8929 16.3612 24.8929 15.9297V11.125C24.8929 9.40188 23.4911 8 21.7679 8H12.1629C10.4398 8 9.0379 9.40188 9.0379 11.125V24.875C9.0379 26.5981 10.4398 28 12.1629 28H14.7758C15.2072 28 15.557 27.6502 15.557 27.2188C15.557 26.7873 15.2072 26.4375 14.7758 26.4375Z"
        fill="white" />
    <path
        d="M26.2767 19.3114C25.3629 18.3976 23.876 18.3976 22.9628 19.3108L18.6736 23.5905C18.5825 23.6814 18.5153 23.7934 18.4779 23.9165L17.5438 26.9917C17.461 27.2643 17.5332 27.5604 17.7321 27.7643C17.8812 27.9171 18.0837 28 18.2914 28C18.3609 28 18.431 27.9907 18.4999 27.9716L21.6532 27.0982C21.783 27.0622 21.9013 26.9934 21.9966 26.8982L26.2768 22.6261C27.1906 21.7122 27.1906 20.2253 26.2767 19.3114ZM21.0382 25.6472L19.4517 26.0867L19.916 24.5582L22.8101 21.6705L23.9152 22.7756L21.0382 25.6472ZM25.1725 21.5207L25.0211 21.6718L23.9162 20.5669L24.0671 20.4164C24.3717 20.1118 24.8673 20.1118 25.1719 20.4164C25.4766 20.721 25.4766 21.2166 25.1725 21.5207Z"
        fill="white" />
    <path
        d="M20.9867 12.6875H12.9398C12.5083 12.6875 12.1586 13.0373 12.1586 13.4688C12.1586 13.9002 12.5083 14.25 12.9398 14.25H20.9867C21.4182 14.25 21.768 13.9002 21.768 13.4688C21.768 13.0373 21.4182 12.6875 20.9867 12.6875Z"
        fill="white" />
</svg>
