<svg width="35" height="35" viewBox="0 0 35 35" fill="none" xmlns="http://www.w3.org/2000/svg">
    <rect width="35" height="35" rx="7" fill="#30CE88" />
    <g clip-path="url(#clip0)">
        <path
            d="M27.8913 16.5506C27.8517 16.2856 27.6374 16.0812 27.3708 16.0541L26.504 15.9662C26.2907 15.0659 25.9377 14.2141 25.4506 13.4243L26.0024 12.7476C26.1722 12.5394 26.1786 12.2425 26.0181 12.0272C25.4386 11.2495 24.7502 10.5608 23.9722 9.98011C23.7566 9.81929 23.4593 9.82578 23.251 9.99589L22.5752 10.5479C21.7846 10.0607 20.9322 9.70726 20.032 9.49332L19.9435 8.62582C19.9163 8.35878 19.7111 8.14437 19.4455 8.1055C18.4856 7.965 17.5121 7.965 16.5522 8.1055C16.2866 8.14437 16.0814 8.35878 16.0542 8.62582L15.9657 9.49332C15.0654 9.70726 14.2131 10.0607 13.4224 10.5479L12.7467 9.99589C12.5384 9.82578 12.2411 9.81929 12.0255 9.98011C11.2474 10.5608 10.5591 11.2496 9.97954 12.0272C9.81907 12.2425 9.82552 12.5394 9.99524 12.7476L10.547 13.4243C10.06 14.2141 9.70696 15.0659 9.49368 15.9662L8.62685 16.0541C8.36024 16.0812 8.14599 16.2856 8.10642 16.5506C7.9629 17.5125 7.9629 18.4878 8.10642 19.4496C8.14599 19.7147 8.36024 19.9191 8.62685 19.9461L9.49368 20.034C9.70696 20.9343 10.06 21.7862 10.547 22.5759L9.99536 23.2527C9.8256 23.4609 9.81915 23.7577 9.97966 23.9731C10.5592 24.7507 11.2475 25.4395 12.0256 26.0201C12.2412 26.181 12.5385 26.1745 12.7468 26.0044L13.4225 25.4524C14.2132 25.9396 15.0656 26.293 15.9658 26.5069L16.0543 27.3744C16.0815 27.6415 16.2867 27.8559 16.5523 27.8948C17.8371 28.0828 18.8755 27.9782 19.4456 27.8948C19.7112 27.8559 19.9164 27.6415 19.9436 27.3744L20.0321 26.5069C20.9324 26.293 21.7847 25.9396 22.5754 25.4524L23.2511 26.0044C23.4594 26.1745 23.7567 26.181 23.9723 26.0201C24.7504 25.4394 25.4387 24.7507 26.0183 23.9731C26.1787 23.7577 26.1723 23.4608 26.0026 23.2527L25.4508 22.5759C25.9378 21.7862 26.2908 20.9343 26.5041 20.034L27.3709 19.9461C27.6375 19.9191 27.8518 19.7147 27.8914 19.4496C28.0347 18.4878 28.0347 17.5125 27.8913 16.5506ZM26.7873 18.8274L25.9599 18.9113C25.7007 18.9376 25.49 19.1318 25.4427 19.388C25.2506 20.4312 24.847 21.405 24.2434 22.2825C24.0959 22.497 24.1076 22.7831 24.2721 22.9849L24.7979 23.6298C24.4456 24.0553 24.0543 24.4468 23.6287 24.7997L22.9852 24.2741C22.7835 24.1093 22.4973 24.0974 22.2828 24.2449C21.4036 24.8488 20.4289 25.2529 19.3858 25.4461C19.1299 25.4935 18.9359 25.7039 18.9095 25.9628L18.8253 26.7894C18.2755 26.8412 17.7223 26.8412 17.1725 26.7894L17.0883 25.9628C17.0619 25.7039 16.8679 25.4935 16.6121 25.4461C15.569 25.2529 14.5943 24.8487 13.715 24.2449C13.5004 24.0974 13.2143 24.1094 13.0127 24.2741L12.3691 24.7997C11.9435 24.4468 11.5522 24.0553 11.1999 23.6298L11.7258 22.9849C11.8903 22.7831 11.902 22.497 11.7544 22.2825C11.1508 21.405 10.7473 20.4311 10.5551 19.388C10.5079 19.1318 10.2972 18.9375 10.0379 18.9112L9.21052 18.8273C9.15759 18.2769 9.15759 17.7233 9.21052 17.1728L10.0379 17.0889C10.2972 17.0626 10.5079 16.8684 10.5551 16.6121C10.7473 15.569 11.1508 14.5952 11.7544 13.7177C11.9019 13.5032 11.8902 13.2171 11.7258 13.0153L11.1999 12.3703C11.5522 11.9448 11.9435 11.5534 12.3691 11.2005L13.0127 11.7261C13.2143 11.8908 13.5005 11.9027 13.715 11.7553C14.5943 11.1514 15.569 10.7473 16.6121 10.5541C16.8679 10.5067 17.0619 10.2962 17.0883 10.0374L17.1725 9.21078C17.7223 9.15902 18.2755 9.15902 18.8253 9.21078L18.9095 10.0374C18.9359 10.2962 19.1299 10.5067 19.3858 10.5541C20.4289 10.7473 21.4036 11.1514 22.2828 11.7553C22.4974 11.9028 22.7835 11.8908 22.9852 11.7261L23.6287 11.2005C24.0543 11.5534 24.4456 11.9448 24.7979 12.3703L24.2721 13.0153C24.1075 13.2171 24.0959 13.5032 24.2434 13.7177C24.847 14.5952 25.2506 15.5691 25.4427 16.6122C25.49 16.8684 25.7007 17.0627 25.9599 17.0889L26.7873 17.1728C26.8403 17.7233 26.8403 18.2769 26.7873 18.8274Z"
            fill="white" />
        <path
            d="M18.0001 11.7656C14.5624 11.7656 11.7657 14.5623 11.7657 18C11.7657 21.4377 14.5624 24.2344 18.0001 24.2344C21.4377 24.2344 24.2344 21.4377 24.2344 18C24.2344 14.5623 21.4377 11.7656 18.0001 11.7656ZM18.0001 23.0625C15.2086 23.0625 12.9376 20.7915 12.9376 18C12.9376 15.2085 15.2086 12.9375 18.0001 12.9375C20.7915 12.9375 23.0626 15.2085 23.0626 18C23.0626 20.7915 20.7915 23.0625 18.0001 23.0625Z"
            fill="white" />
        <path
            d="M20.5104 14.9037H18.3138C16.7795 14.9037 15.5313 16.1519 15.5313 17.6862V19.6401L15.0753 20.0961C14.8465 20.3249 14.8465 20.6959 15.0753 20.9247C15.3041 21.1536 15.6751 21.1536 15.9039 20.9247L16.3599 20.4688H18.3139C19.8482 20.4688 21.0964 19.2205 21.0964 17.6862V15.4896C21.0964 15.166 20.834 14.9037 20.5104 14.9037ZM19.9245 17.6863C19.9245 18.5744 19.2019 19.2969 18.3138 19.2969H17.5318L18.7281 18.1006C18.9569 17.8717 18.9569 17.5008 18.7281 17.2719C18.4993 17.0431 18.1283 17.0431 17.8995 17.2719L16.7031 18.4683V17.6862C16.7031 16.7981 17.4257 16.0756 18.3138 16.0756H19.9244V17.6863H19.9245Z"
            fill="white" />
    </g>
    <defs>
        <clipPath id="clip0">
            <rect width="20" height="20" fill="white" transform="translate(8 8)" />
        </clipPath>
    </defs>
</svg>
