<svg width="35" height="35" viewBox="0 0 35 35" fill="none" xmlns="http://www.w3.org/2000/svg">
    <rect width="35" height="35" rx="7" fill="#7DE393" />
    <path
        d="M17.9609 23.6641C17.5294 23.6641 17.1797 23.3143 17.1797 22.8828C17.1797 22.4513 17.5294 22.1016 17.9609 22.1016C18.3925 22.1016 18.7422 22.4513 18.7422 22.8828C18.7422 23.3143 18.3925 23.6641 17.9609 23.6641ZM18.7422 20.1484V19.0994C20.2528 18.7339 21.2994 17.3634 21.2397 15.8136C21.1749 14.1259 19.7903 12.7537 18.0876 12.6899C17.1779 12.6555 16.3188 12.9814 15.6694 13.6068C15.0311 14.2216 14.6797 15.0465 14.6797 15.9297C14.6797 16.3612 15.0294 16.7109 15.4609 16.7109C15.8925 16.7109 16.2422 16.3612 16.2422 15.9297C16.2422 15.475 16.4236 15.0497 16.7532 14.7323C17.0941 14.4041 17.5468 14.2334 18.029 14.2512C18.9203 14.2848 19.6447 14.9974 19.6785 15.8737C19.7097 16.6903 19.1461 17.4119 18.3378 17.5892C17.6559 17.7389 17.1797 18.3282 17.1797 19.0225V20.1484C17.1797 20.58 17.5294 20.9297 17.9609 20.9297C18.3925 20.9297 18.7422 20.58 18.7422 20.1484ZM23.1743 26.5588C23.5434 26.3353 23.6613 25.8549 23.4378 25.486C23.2141 25.1169 22.7337 24.9989 22.3648 25.2224C21.0525 26.0173 19.5431 26.4375 18 26.4375C13.3476 26.4375 9.5625 22.6524 9.5625 18C9.5625 13.3476 13.3476 9.5625 18 9.5625C22.6524 9.5625 26.4375 13.3476 26.4375 18C26.4375 19.6637 25.9428 21.2829 25.0068 22.6831C24.767 23.0417 24.8634 23.5269 25.222 23.7668C25.5807 24.0066 26.0659 23.9102 26.3057 23.5515C27.4142 21.8936 28 19.9739 28 18C28 15.3289 26.9598 12.8177 25.0711 10.9289C23.1823 9.04019 20.6711 8 18 8C15.3289 8 12.8177 9.04019 10.9289 10.9289C9.04019 12.8177 8 15.3289 8 18C8 20.6711 9.04019 23.1823 10.9289 25.0711C12.8177 26.9598 15.3289 28 18 28C19.8286 28 21.6179 27.5016 23.1743 26.5588Z"
        fill="white" />
</svg>
