<svg width="38" height="38" viewBox="0 0 38 38" fill="none" xmlns="http://www.w3.org/2000/svg">
<path d="M31.0374 8.29653C30.5491 3.46294 26.8173 0.305295 26.6587 0.173259C26.387 -0.0529605 25.9934 -0.0560777 25.7182 0.165763C25.6794 0.197009 21.834 3.34857 21.3549 8.28607C21.3224 8.62117 21.3062 8.96094 21.3067 9.29611C21.3073 9.70558 21.6395 10.037 22.0488 10.037C22.0492 10.037 22.0496 10.037 22.05 10.037C22.4599 10.0363 22.7916 9.7035 22.7909 9.29367C22.7905 9.00696 22.8044 8.71617 22.8322 8.42939C22.8633 8.10891 22.9119 7.79674 22.9743 7.49274L25.3552 9.87361C25.3865 9.90493 25.4204 9.93225 25.4555 9.95681V11.7643C25.4555 12.1742 25.7878 12.5064 26.1976 12.5064C26.6074 12.5064 26.9397 12.1741 26.9397 11.7643V7.93308L28.94 5.9328C29.2415 6.69934 29.4693 7.5418 29.5606 8.44571C29.5896 8.7319 29.6046 9.02262 29.6051 9.30999C29.6058 9.71946 29.9379 10.0508 30.3472 10.0508C30.3476 10.0508 30.3481 10.0508 30.3486 10.0508C30.7584 10.05 31.09 9.71716 31.0893 9.30732C31.0887 8.97126 31.0712 8.63119 31.0374 8.29653ZM25.4553 7.60934C25.455 7.62077 25.455 7.63205 25.4553 7.64348V7.87475L23.4568 5.87632C24.0055 4.48256 24.7973 3.34954 25.4553 2.56185V7.60934ZM26.9395 5.83394V2.60141C27.36 3.10877 27.8318 3.75396 28.2606 4.51285L26.9395 5.83394Z" fill="#9F9F9F"/>
<path d="M37.2557 36.5143H37.2471C36.8373 36.5143 36.505 36.8466 36.505 37.2564C36.505 37.6662 36.8374 37.9985 37.2471 37.9985H37.2557C37.6656 37.9985 37.9978 37.6662 37.9978 37.2564C37.9978 36.8466 37.6655 36.5143 37.2557 36.5143Z" fill="#9F9F9F"/>
<path d="M34.8313 36.5142H26.94V33.8008L28.0338 32.707C28.3236 32.4172 28.3236 31.9474 28.0338 31.6574C27.744 31.3678 27.2743 31.3676 26.9842 31.6574L26.94 31.7016V29.6722C28.4468 28.0702 29.5776 26.2107 30.3002 24.1432C30.4355 23.7563 30.2314 23.3331 29.8445 23.1978C29.4574 23.0625 29.0342 23.2666 28.8991 23.6535C28.4316 24.991 27.7745 26.2319 26.9399 27.3609V22.0348L27.8597 21.112C28.4064 21.5411 29.3093 22.0711 30.477 22.1208C30.5374 22.1234 30.5979 22.1247 30.6583 22.1247C32.0189 22.1247 33.3596 21.4713 34.6462 20.1805C38.4519 16.3621 37.9936 10.8228 37.9722 10.5888C37.9399 10.2366 37.6637 9.95605 37.3121 9.91842C37.2555 9.91233 31.6206 9.35873 27.7369 13.2552C27.031 13.9634 26.5185 14.6878 26.1979 15.4228C25.8774 14.688 25.3649 13.9634 24.6591 13.2552C20.7754 9.35881 15.1403 9.91226 15.0839 9.91842C14.7322 9.95605 14.456 10.2367 14.4237 10.5888C14.4024 10.8227 13.944 16.3621 17.7497 20.1805C19.0364 21.4714 20.3769 22.1247 21.7376 22.1247C21.7979 22.1247 21.8585 22.1234 21.9189 22.1208C23.0865 22.071 23.9895 21.541 24.5362 21.1119L25.4556 22.0344V28.6127L24.9659 28.1229C24.676 27.8332 24.2063 27.8332 23.9163 28.1229C23.6265 28.4128 23.6265 28.8826 23.9163 29.1725L25.4555 30.7118V33.4928C25.4555 33.4931 25.4555 33.4934 25.4555 33.4936V36.5141H0.74236C0.332523 36.5141 0.000244141 36.8465 0.000244141 37.2563C0.000244141 37.6661 0.332597 37.9984 0.74236 37.9984H34.8309C35.2408 37.9984 35.5731 37.666 35.5731 37.2563C35.5731 36.8465 35.2411 36.5142 34.8313 36.5142ZM35.8455 15.4054H33.5474L36.4543 12.489C36.3784 13.3059 36.2086 14.3316 35.8455 15.4054ZM30.1059 13.2172C31.9455 11.9751 33.9992 11.5587 35.4147 11.4294L30.1059 16.7558V13.2172ZM32.0681 16.8897H35.2175C34.813 17.6716 34.2856 18.4397 33.5951 19.1326C32.5633 20.1678 31.541 20.6739 30.5564 20.6385C29.8637 20.6131 29.296 20.3184 28.918 20.0504L32.0681 16.8897ZM28.6216 14.4757V18.245L27.8703 18.9988C27.6058 18.6225 27.3164 18.0597 27.2871 17.3725C27.2469 16.4327 27.6962 15.459 28.6216 14.4757ZM22.2902 13.2172V16.7558L16.9814 11.4294C18.397 11.5588 20.4507 11.9752 22.2902 13.2172ZM15.9418 12.489L18.8486 15.4054H16.5506C16.1876 14.3315 16.0178 13.3058 15.9418 12.489ZM21.8558 20.6378C20.8657 20.6798 19.8385 20.1734 18.8011 19.1326C18.1107 18.4398 17.5831 17.6717 17.1788 16.8897H20.328L22.5075 19.0763C22.5075 19.0764 22.5077 19.0765 22.5078 19.0766L23.4786 20.0507C23.1038 20.3166 22.5421 20.6086 21.8558 20.6378ZM25.1099 17.3561C25.0845 18.05 24.7922 18.6189 24.5256 18.9985L23.7746 18.245V14.4756C24.6946 15.4532 25.144 16.4214 25.1099 17.3561Z" fill="#9F9F9F"/>
<path d="M20.2205 4.11543L20.2118 4.11268C19.8211 3.99051 19.4044 4.2085 19.2822 4.59971C19.1599 4.99092 19.3778 5.40721 19.769 5.52945L19.7848 5.53435C19.8574 5.55661 19.9307 5.56723 20.0029 5.56723C20.3203 5.56723 20.6141 5.36194 20.7121 5.04279C20.8324 4.65092 20.6123 4.23573 20.2205 4.11543Z" fill="#9F9F9F"/>
<path d="M24.4068 25.469L23.6273 25.2867C21.0804 24.6911 18.478 26.0004 17.4386 28.4002L15.4039 33.0972C14.3573 33.084 13.3378 32.9568 12.3573 32.7263L11.4216 29.6057C10.7104 27.2341 11.8088 24.7235 14.0332 23.6361L14.7792 23.2715C15.4375 22.9497 15.9365 22.3628 16.148 21.6613C16.3596 20.9598 16.2684 20.1949 15.8976 19.5628C15.4257 18.7578 14.5526 18.2577 13.6194 18.2577H11.8481C11.2929 18.2577 10.8102 17.9626 10.5569 17.4686C10.3036 16.9745 10.3459 16.4103 10.6701 15.9596L12.2709 13.7336C13.0523 12.6472 13 11.1702 12.1437 10.1417L9.09703 6.48245C11.0403 5.47114 13.2468 4.89854 15.5847 4.89854C16.026 4.89854 16.4714 4.91917 16.909 4.95984C17.3158 4.99762 17.6786 4.6977 17.7166 4.28965C17.7546 3.88152 17.4545 3.51992 17.0464 3.48199C16.5635 3.43709 16.0718 3.41431 15.5849 3.41431C12.6916 3.41431 9.98053 4.20778 7.65606 5.58714C7.60159 5.61089 7.54941 5.64184 7.50035 5.67962C3.00684 8.41704 0 13.3635 0 18.999C0 26.1863 4.89111 32.2519 11.5192 34.0448C11.5558 34.0579 11.5932 34.068 11.6316 34.0753C12.8946 34.4068 14.2193 34.5839 15.5848 34.5839C18.3591 34.5839 21.0834 33.8455 23.4632 32.4486C23.8167 32.2411 23.935 31.7865 23.7276 31.4329C23.5202 31.0793 23.0655 30.9611 22.7118 31.1685C20.9817 32.1841 19.0495 32.8139 17.0541 33.0221L18.8006 28.9901C19.5546 27.2496 21.4428 26.3 23.2893 26.7319L24.0686 26.9142C24.4677 27.0073 24.8669 26.7598 24.9604 26.3607C25.0538 25.9616 24.8059 25.5625 24.4068 25.469ZM1.48423 18.999C1.48423 14.0986 3.99744 9.77488 7.80213 7.24683L11.0032 11.0915C11.4265 11.5999 11.4524 12.3301 11.0661 12.8671L9.46523 15.093C8.81915 15.9913 8.73135 17.1611 9.23604 18.1458C9.74073 19.1305 10.7416 19.7421 11.8481 19.7421H13.6195C14.0283 19.7421 14.4106 19.9611 14.6174 20.3138C14.7821 20.5947 14.821 20.9211 14.7271 21.2329C14.633 21.5447 14.42 21.7952 14.1275 21.9382L13.3815 22.3028C10.5013 23.7106 9.07907 26.9613 9.9999 30.0321L10.6526 32.2087C5.3028 30.2046 1.48423 25.0397 1.48423 18.999Z" fill="#9F9F9F"/>
</svg>
