<svg width="38" height="38" viewBox="0 0 38 38" fill="none" xmlns="http://www.w3.org/2000/svg">
<path d="M37.6739 18.2133L19.7872 0.326568C19.3525 -0.108205 18.6476 -0.108205 18.2128 0.326568L0.326105 18.2133C0.00770612 18.5317 -0.0875166 19.0105 0.0847452 19.4265C0.257155 19.8425 0.663058 20.1137 1.11334 20.1137H4.7698V36.8872C4.7698 37.502 5.26826 38.0005 5.88309 38.0005H32.1169C32.7317 38.0005 33.2302 37.502 33.2302 36.8872V20.1137H36.8868C37.3371 20.1137 37.743 19.8425 37.9153 19.4265C38.0876 19.0105 37.9923 18.5317 37.6739 18.2133ZM32.117 17.8872C31.5022 17.8872 31.0038 18.3856 31.0038 19.0005V35.7739H6.99644V19.0005C6.99644 18.3856 6.49799 17.8872 5.88316 17.8872H3.80103L19.0001 2.68821L34.1991 17.8872H32.117Z" fill="#9F9F9F"/>
<path d="M11.9254 23.7698V29.2709L9.86655 31.3297C9.43177 31.7645 9.43177 32.4693 9.86655 32.9041C10.3012 33.3389 11.0062 33.3389 11.4409 32.9041L13.4998 30.8453H19.0009C22.9023 30.8453 26.0764 27.6712 26.0764 23.7698V17.8076C26.0764 17.1927 25.5779 16.6943 24.9631 16.6943H19.0009C15.0995 16.6943 11.9254 19.8683 11.9254 23.7698ZM23.8498 23.7698C23.8498 26.4477 21.6788 28.6187 19.0009 28.6187L15.7263 28.6188L19.7881 24.557C20.2229 24.1222 20.2229 23.4174 19.7881 22.9826C19.3534 22.5478 18.6485 22.5478 18.2137 22.9826L14.1519 27.0443V23.7698C14.1519 21.0918 16.3229 18.9208 19.0009 18.9208H23.8498V23.7698Z" fill="#9F9F9F"/>
</svg>
