<svg width="38" height="38" viewBox="0 0 38 38" fill="none" xmlns="http://www.w3.org/2000/svg">
<path d="M37.9036 32.5614C37.7366 31.7589 36.9507 31.2437 36.1478 31.4108C35.3452 31.5779 34.8301 32.364 34.9972 33.1665C35.0935 33.6288 34.9788 34.1026 34.6828 34.4667C34.5114 34.6776 34.1291 35.0312 33.4954 35.0312H4.50453C3.87085 35.0312 3.48855 34.6775 3.3171 34.4667C3.02105 34.1027 2.90645 33.6288 3.00271 33.1665C4.5432 25.7673 11.0696 20.3622 18.6065 20.1799C18.737 20.185 18.8682 20.1875 19 20.1875C19.1322 20.1875 19.2639 20.1849 19.395 20.1799C24.704 20.3072 29.611 22.9962 32.5827 27.4281C33.0392 28.109 33.9612 28.2909 34.6422 27.8343C35.3231 27.3778 35.505 26.4557 35.0484 25.7748C32.6128 22.1423 29.0761 19.5008 25.0435 18.1736C27.5008 16.3308 29.0937 13.3948 29.0937 10.0938C29.0937 4.52809 24.5657 0 19 0C13.4342 0 8.90622 4.52809 8.90622 10.0938C8.90622 13.3968 10.501 16.3344 12.961 18.177C10.7071 18.919 8.59228 20.0736 6.74126 21.5962C3.34709 24.3881 0.987155 28.2822 0.0963074 32.5614C-0.182904 33.9023 0.1516 35.2795 1.01387 36.3398C1.87192 37.3949 3.14425 38 4.50453 38H33.4953C34.8557 38 36.128 37.3949 36.986 36.3398C37.8484 35.2795 38.1828 33.9023 37.9036 32.5614ZM11.875 10.0938C11.875 6.16498 15.0712 2.96875 19 2.96875C22.9287 2.96875 26.125 6.16498 26.125 10.0938C26.125 13.9015 23.1225 17.0213 19.3606 17.2097C19.2406 17.2075 19.1204 17.2064 19 17.2064C18.8802 17.2064 18.7604 17.2075 18.6408 17.2098C14.8782 17.0221 11.875 13.9021 11.875 10.0938Z" fill="#9F9F9F"/>
</svg>
