<svg width="38" height="38" viewBox="0 0 38 38" fill="none" xmlns="http://www.w3.org/2000/svg">
<g clip-path="url(#clip0)">
<path d="M15.8333 29.2917C15.1778 29.2917 14.6458 28.7597 14.6458 28.1042V18.6042C14.6458 17.9487 15.1778 17.4167 15.8333 17.4167C16.4888 17.4167 17.0208 17.9487 17.0208 18.6042V28.1042C17.0208 28.7597 16.4888 29.2917 15.8333 29.2917Z" fill="#9F9F9F"/>
<path d="M18.2083 19H15.8333C15.1778 19 14.6458 18.468 14.6458 17.8125V17.0208C14.6458 13.7465 17.309 11.0833 20.5833 11.0833H22.9583C23.6138 11.0833 24.1458 11.6153 24.1458 12.2708V13.0625C24.1458 16.3368 21.4826 19 18.2083 19ZM17.043 16.625H18.2083C20.0386 16.625 21.5507 15.238 21.7486 13.4583H20.5833C18.753 13.4583 17.2409 14.8453 17.043 16.625Z" fill="#9F9F9F"/>
<path d="M15.4375 20.5833H13.0625C8.91576 20.5833 5.54167 17.2092 5.54167 13.0625V12.2708C5.54167 11.6153 6.07367 11.0833 6.72917 11.0833H9.10417C13.2509 11.0833 16.625 14.4574 16.625 18.6041V19.3958C16.625 20.0513 16.093 20.5833 15.4375 20.5833ZM7.93092 13.4583C8.13359 16.112 10.3582 18.2083 13.0625 18.2083H14.2358C14.0331 15.5546 11.8085 13.4583 9.10417 13.4583H7.93092Z" fill="#9F9F9F"/>
<path d="M15.0417 30.0833C6.74817 30.0833 0 23.3352 0 15.0417C0 6.74817 6.74817 0 15.0417 0C23.3352 0 30.0833 6.74817 30.0833 15.0417C30.0833 23.3352 23.3352 30.0833 15.0417 30.0833ZM15.0417 2.375C8.05758 2.375 2.375 8.05758 2.375 15.0417C2.375 22.0258 8.05758 27.7083 15.0417 27.7083C22.0258 27.7083 27.7083 22.0258 27.7083 15.0417C27.7083 8.05758 22.0258 2.375 15.0417 2.375Z" fill="#9F9F9F"/>
<path d="M36.8125 38C36.5085 38 36.2045 37.8844 35.9733 37.6517L24.3992 26.0775C23.9352 25.6136 23.9352 24.8615 24.3992 24.3976C24.8631 23.9336 25.6152 23.9336 26.0791 24.3976L37.6532 35.9717C38.1172 36.4356 38.1172 37.1877 37.6532 37.6517C37.4205 37.8844 37.1165 38 36.8125 38Z" fill="#9F9F9F"/>
</g>
<defs>
<clipPath id="clip0">
<rect width="38" height="38" fill="white"/>
</clipPath>
</defs>
</svg>
