<svg width="20" height="20" viewBox="0 0 20 20" fill="none" xmlns="http://www.w3.org/2000/svg">
<g clip-path="url(#clip0)">
<path d="M6.11024 15.945L8.93352 11.2985L8.18223 19.6292C6.84299 19.6294 5.75749 18.5438 5.75769 17.2044C5.75777 16.7432 5.88671 16.3121 6.11024 15.945Z" fill="#27A09E"/>
<path d="M6.9646 17.2044C6.9646 16.7431 7.04454 16.3121 7.18314 15.945L8.93347 11.2984L11.0665 11.2959L13.8916 15.945C14.1152 16.3121 14.2441 16.7432 14.2442 17.2044C14.2444 18.5437 13.1589 19.6293 11.8196 19.6292C11.0952 19.6291 10.4439 19.3109 9.9995 18.8071C9.5551 19.3109 8.90664 19.6291 8.18218 19.6292C7.50966 19.6293 6.96452 18.5437 6.9646 17.2044Z" fill="#D3F5CE"/>
<path d="M2.98305 8.02135L8.27464 9.27059L0.119421 11.1304C-0.294606 9.85677 0.402453 8.48889 1.67632 8.07522C2.11501 7.93276 2.5648 7.92218 2.98305 8.02135Z" fill="#27A09E"/>
<path d="M2.04935 9.2231C2.488 9.0806 2.92267 9.02343 3.31465 9.04178L8.27469 9.27058L8.93626 11.2984L5.38772 15.4219C5.10763 15.748 4.73753 16.0038 4.29892 16.1464C3.02518 16.5605 1.65725 15.8636 1.24359 14.5898C1.01982 13.9008 1.1212 13.1831 1.46301 12.6048C0.846538 12.3378 0.343518 11.8194 0.119546 11.1304C-0.0885335 10.4908 0.775488 9.63689 2.04935 9.2231Z" fill="#D3F5CE"/>
<path d="M9.55261 2.59911L9.99971 8.01775L5.71082 0.836428C6.79418 0.049088 8.31049 0.289313 9.09758 1.373C9.36863 1.74615 9.51765 2.17068 9.55261 2.59911Z" fill="#27A09E"/>
<path d="M8.12101 2.08204C8.39209 2.45519 8.58078 2.85091 8.68446 3.22938L9.9996 8.01734L8.27546 9.27314L3.25717 7.17251C2.86052 7.00692 2.50282 6.73394 2.23169 6.36087C1.44427 5.27743 1.68434 3.76108 2.76795 2.97406C3.35413 2.54833 4.06804 2.42297 4.7237 2.56933C4.78711 1.90056 5.12469 1.26195 5.71071 0.836017C6.25469 0.440536 7.33383 0.998393 8.12101 2.08204Z" fill="#D3F5CE"/>
<path d="M16.7399 7.17086L11.7246 9.27052L17.2291 2.97241C18.3128 3.75943 18.5528 5.27577 17.7654 6.35922C17.4942 6.73233 17.1365 7.00526 16.7399 7.17086Z" fill="#27A09E"/>
<path d="M16.7889 5.64978C16.5178 6.02289 16.1997 6.32463 15.8718 6.54019L11.7246 9.27053L9.99744 8.01884L10.4445 2.59705C10.4795 2.16862 10.6285 1.7441 10.8996 1.37094C11.6867 0.287255 13.203 0.0469899 14.2863 0.83437C14.8723 1.26027 15.2122 1.90052 15.2756 2.56933C15.9313 2.42297 16.643 2.54668 17.2291 2.97242C17.7733 3.36758 17.5762 4.56629 16.7889 5.64978Z" fill="#D3F5CE"/>
<path d="M14.6124 15.4194L11.0657 11.2985L18.7565 14.5873C18.3429 15.8611 16.9749 16.558 15.7012 16.1439C15.2626 16.0013 14.8925 15.7455 14.6124 15.4194Z" fill="#27A09E"/>
<path d="M16.0741 14.996C15.6355 14.8534 15.2502 14.6442 14.9439 14.3989L11.0657 11.2984L11.7224 9.269L17.0169 8.01879C17.4352 7.91962 17.885 7.9302 18.3236 8.07266C19.5975 8.48636 20.2946 9.85421 19.8805 11.1278C19.6566 11.8168 19.1527 12.3378 18.5362 12.6048C18.878 13.1832 18.9803 13.8982 18.7565 14.5873C18.5489 15.227 17.3479 15.41 16.0741 14.996Z" fill="#D3F5CE"/>
<path d="M10.0005 8.01697V11.645C11.0004 11.645 11.8109 10.8328 11.8109 9.83099C11.8109 8.82913 11.0004 8.01697 10.0005 8.01697Z" fill="#5E403D"/>
<path d="M10.6039 9.83099C10.6039 8.82913 10.3337 8.01697 10.0004 8.01697C9.00049 8.01697 8.18994 8.82913 8.18994 9.83099C8.18994 10.8328 9.00049 11.645 10.0004 11.645C10.3337 11.645 10.6039 10.8328 10.6039 9.83099Z" fill="#79493C"/>
</g>
<defs>
<clipPath id="clip0">
<rect width="20" height="20" fill="white"/>
</clipPath>
</defs>
</svg>
