<svg width="20" height="20" viewBox="0 0 20 20" fill="none" xmlns="http://www.w3.org/2000/svg">
<g id="ecology 1">
<g id="Group">
<path id="Vector" d="M17.4895 0.585938C17.4895 0.262344 17.2265 0 16.9029 0C13.8026 0 11.1364 1.89379 9.99995 4.58531C8.8635 1.89379 6.19713 0 3.09631 0C2.77272 0 2.51038 0.262344 2.51038 0.585938C2.51038 4.51852 5.55706 7.75281 9.41401 8.0527V11.8828C9.41401 12.2064 9.67635 12.4688 9.99995 12.4688C10.3235 12.4688 10.5859 12.2064 10.5859 11.8828V8.0527C14.4428 7.75281 17.4895 4.51852 17.4895 0.585938ZM3.71198 1.20156C6.70526 1.49215 9.0937 3.88059 9.38428 6.87387C6.39124 6.58305 4.00284 4.19465 3.71198 1.20156ZM10.6156 6.87391C10.9062 3.88082 13.2944 1.49246 16.2879 1.20164C15.997 4.19469 13.6087 6.58305 10.6156 6.87391Z" fill="#0A8270"/>
<path id="Vector_2" d="M6.33488 11.7822C5.6009 11.0483 4.43082 11.0369 3.6823 11.7258V9.37167C3.6823 7.66538 2.29395 6.27597 0.586601 6.27597H0.585937C0.262344 6.27597 0 6.53831 0 6.86191V14.3932C0 14.5485 0.0617578 14.6976 0.171641 14.8075L3.76562 18.4015V19.414C3.76562 19.7376 4.02797 20 4.35156 20H8.7448C9.0684 20 9.33074 19.7376 9.33074 19.414V16.0607C9.33074 15.2336 9.00867 14.456 8.42391 13.8712L6.33488 11.7822ZM8.15887 18.8281H4.9375V18.1588C4.9375 18.0034 4.87574 17.8544 4.76586 17.7445L1.17187 14.1505V7.54011C2.27898 7.89546 2.51043 8.92132 2.51043 9.37171V13.138C2.51043 13.2934 2.57219 13.4424 2.68207 13.5523L5.1925 16.0627C5.42133 16.2915 5.79234 16.2916 6.02113 16.0627C6.24996 15.8339 6.24996 15.4629 6.02113 15.2341L4.45211 13.6651C4.16086 13.3738 4.16062 12.9024 4.45211 12.6109C4.74355 12.3195 5.21473 12.3194 5.50629 12.6109L7.59527 14.6999C7.95875 15.0634 8.15891 15.5466 8.15891 16.0607V18.8281H8.15887Z" fill="#0A8270"/>
<path id="Vector_3" d="M19.4141 6.27603H19.4135C17.7061 6.27603 16.3178 7.66549 16.3178 9.37174V11.7258C15.5692 11.037 14.3992 11.0483 13.6652 11.7823L11.5761 13.8713C10.9914 14.4561 10.6693 15.2337 10.6693 16.0608V19.414C10.6693 19.7376 10.9317 20 11.2552 20H15.6485C15.972 20 16.2344 19.7376 16.2344 19.414V18.4015L19.8284 14.8075C19.9383 14.6976 20 14.5486 20 14.3932V6.86197C20 6.53834 19.7377 6.27603 19.4141 6.27603ZM18.8281 14.1505L15.2342 17.7445C15.1243 17.8544 15.0625 18.0034 15.0625 18.1588V18.8281H11.8411V16.0608C11.8411 15.5467 12.0413 15.0634 12.4048 14.6999L14.4938 12.6109C14.7853 12.3194 15.2565 12.3195 15.5479 12.6109C15.8394 12.9024 15.8392 13.3738 15.5479 13.6651L13.9789 15.2341C13.7501 15.4629 13.7501 15.8339 13.9789 16.0628C14.2077 16.2916 14.5787 16.2915 14.8076 16.0628L17.318 13.5523C17.4279 13.4424 17.4896 13.2934 17.4896 13.138V9.37174C17.4896 8.92134 17.7211 7.89548 18.8282 7.54013V14.1505H18.8281Z" fill="#0A8270"/>
</g>
</g>
</svg>
