<svg width="20" height="20" viewBox="0 0 20 20" fill="none" xmlns="http://www.w3.org/2000/svg">
<path d="M14.1989 10.794C14.2429 9.76355 14.0976 8.72911 13.7652 7.74637L13.555 7.79093L13.4173 7.42028L13.5383 7.15167C13.2118 6.38443 12.7667 5.65751 12.2045 4.99949L12.0219 5.05128L11.7699 4.72858L11.809 4.56786C11.8034 4.56217 11.798 4.5564 11.7925 4.55074L10.501 3.24316L8.87263 4.49799L7.00833 7.29052L6.72424 11.3919L8.06968 15.5585L10.7042 17.8685L12.5076 15.4894C13.3858 14.3309 13.9192 13.0085 14.118 11.6519L13.9574 11.631L14.0187 11.0684L14.1989 10.794Z" fill="#BBEC6C"/>
<path d="M19.3791 4.20162H15.4521C15.2849 4.20162 15.1493 4.06604 15.1493 3.89881V1.96663C15.1493 1.79939 15.2849 1.66382 15.4521 1.66382H19.3791C19.5463 1.66382 19.6819 1.79939 19.6819 1.96663V3.89881C19.6819 4.06604 19.5463 4.20162 19.3791 4.20162Z" fill="#F37C7C"/>
<path d="M19.4547 17.3214H16.1356C15.9959 17.3214 15.8827 17.2082 15.8827 17.0685V15.9024C15.8827 15.7626 15.9959 15.6494 16.1356 15.6494H19.4547C19.5944 15.6494 19.7076 15.7626 19.7076 15.9024V17.0685C19.7076 17.2082 19.5943 17.3214 19.4547 17.3214Z" fill="#62DBFB"/>
<path d="M0.621167 4.20162H4.54811C4.71535 4.20162 4.85092 4.06604 4.85092 3.89881V1.96663C4.85092 1.79939 4.71535 1.66382 4.54811 1.66382H0.621167C0.453933 1.66382 0.318359 1.79939 0.318359 1.96663V3.89881C0.31832 4.06604 0.453894 4.20162 0.621167 4.20162Z" fill="#F37C7C"/>
<path d="M0.545418 17.3214H3.86445C4.00415 17.3214 4.11739 17.2082 4.11739 17.0685V15.9024C4.11739 15.7626 4.00415 15.6494 3.86445 15.6494H0.545418C0.405712 15.6494 0.29248 15.7626 0.29248 15.9024V17.0685C0.29248 17.2082 0.405712 17.3214 0.545418 17.3214Z" fill="#62DBFB"/>
<path d="M9.70316 4.99915L10.9578 3.70561L10.5011 3.24325C10.4391 3.18051 10.368 3.13263 10.2924 3.09808L10.2315 3.3805H9.87359L9.70749 3.09808C9.63181 3.13263 9.56069 3.18051 9.49869 3.24329L8.20725 4.55087C8.20191 4.55629 8.19677 4.56182 8.19142 4.56724L8.24277 4.77019L7.99767 5.04411L7.79519 4.99958C7.23403 5.65631 6.78956 6.38175 6.46313 7.14735L6.46324 7.1475L6.52676 7.39709L6.34908 7.72543L6.23452 7.74641C5.91007 8.70548 5.76315 9.71384 5.79715 10.7196H5.79723L5.92898 10.9945L5.99968 11.5714L5.88161 11.6514C6.08031 13.0082 6.61371 14.3308 7.492 15.4894L9.43845 18.0572C9.51238 18.1547 9.60557 18.226 9.70761 18.2724L9.79768 18.1963L10.2301 18.2131L10.2908 18.2729C10.29 18.2751 10.4865 18.1554 10.5612 18.0572L10.954 17.5392L9.39992 15.489C7.00924 12.3351 7.16747 7.96671 9.70316 4.99915Z" fill="#A2E62E"/>
<path d="M14.4778 9.81389C14.3306 7.75565 13.4509 5.81352 12.0007 4.34526L10.7093 3.03768C10.5205 2.84659 10.2686 2.74127 10 2.74127C9.7314 2.74131 9.47948 2.84655 9.29076 3.03768L7.99932 4.34526C6.53535 5.82752 5.65422 7.78871 5.51834 9.86762C5.38241 11.9465 6.00066 14.0058 7.25915 15.666L9.2056 18.2339C9.39572 18.4847 9.68531 18.6285 10.0001 18.6285C10.3148 18.6285 10.6044 18.4847 10.7945 18.2338L12.0547 16.5712C12.1523 16.4425 12.127 16.2591 11.9984 16.1615C11.8697 16.0639 11.6862 16.0892 11.5887 16.2179L10.3284 17.8805C10.3173 17.8951 10.3052 17.9087 10.2925 17.9215V15.3221L13.7624 11.9936C13.5334 13.1553 13.0504 14.2616 12.3383 15.227C12.2424 15.357 12.27 15.54 12.4 15.6359C12.5299 15.7318 12.713 15.7041 12.8089 15.5742C14.0322 13.916 14.6249 11.8703 14.4778 9.81389ZM10.2924 6.83381L11.9929 5.20265C12.5464 5.85427 12.9905 6.587 13.3118 7.37135L10.2924 10.2676V6.83381ZM11.5846 4.75627C11.5893 4.76099 11.5938 4.76586 11.5985 4.77062L10.2924 6.02338V3.44803C10.2927 3.44826 10.293 3.44846 10.2932 3.44869L11.5846 4.75627ZM9.70684 3.44869C9.70707 3.44846 9.70734 3.44826 9.70758 3.44799V6.02338L8.40156 4.77062C8.40624 4.76586 8.41072 4.76099 8.4154 4.75627L9.70684 3.44869ZM6.10192 9.90579C6.1452 9.24372 6.26966 8.59451 6.46902 7.97147L7.27088 8.74065C7.32758 8.79508 7.40049 8.82207 7.47329 8.82207C7.55018 8.82207 7.62695 8.79196 7.68439 8.73203C7.79618 8.61549 7.79236 8.4304 7.67577 8.31857L6.68804 7.37112C7.00921 6.58704 7.45325 5.85447 8.00704 5.20261L9.70758 6.83381V10.2676L8.57534 9.18149C8.45876 9.06962 8.27367 9.07344 8.16188 9.19011C8.05009 9.30665 8.05391 9.49174 8.1705 9.60357L9.70762 11.078V14.5117L6.10964 11.0604C6.07977 10.6781 6.07662 10.2924 6.10192 9.90579ZM9.67163 17.8806L7.72517 15.3128C6.97779 14.3268 6.47304 13.1898 6.23742 11.9935L9.70758 15.3222V17.9217C9.6949 17.9087 9.68278 17.8952 9.67163 17.8806ZM10.2924 14.5117V11.078L13.5305 7.97186C13.7249 8.57919 13.8483 9.21124 13.8944 9.85561C13.9233 10.2589 13.9212 10.6617 13.89 11.0608L10.2924 14.5117Z" fill="black"/>
<path d="M12.851 4.21843C12.8957 4.24292 12.9438 4.25454 12.9914 4.25454C13.0947 4.25454 13.1949 4.19972 13.2481 4.10271L14.2595 2.259H14.8568V3.89874C14.8568 4.22697 15.1238 4.49402 15.4521 4.49402H19.379C19.7072 4.49402 19.9743 4.22697 19.9743 3.89874V1.96656C19.9743 1.63833 19.7072 1.37128 19.379 1.37128H15.4521C15.2301 1.37128 15.0365 1.49359 14.9342 1.67412H14.0865C13.9797 1.67412 13.8814 1.7323 13.8301 1.82592L12.7353 3.82142C12.6577 3.963 12.7094 4.14076 12.851 4.21843ZM15.4521 1.95619H19.379C19.3847 1.95619 19.3894 1.96083 19.3894 1.9666V3.89878C19.3894 3.90451 19.3848 3.90919 19.379 3.90919H15.4521C15.4463 3.90919 15.4416 3.90455 15.4416 3.89878V1.96656C15.4417 1.96083 15.4463 1.95619 15.4521 1.95619Z" fill="black"/>
<path d="M19.4546 15.357H16.1356C16.1071 15.357 16.0793 15.3598 16.052 15.3641L15.5536 14.5386C15.5006 14.4509 15.4056 14.3973 15.3032 14.3973H14.3616C14.2001 14.3973 14.0692 14.5282 14.0692 14.6897C14.0692 14.8513 14.2001 14.9821 14.3616 14.9821H15.1382L15.6091 15.7622C15.5972 15.807 15.5902 15.8538 15.5902 15.9023V17.0685C15.5902 17.3692 15.8349 17.6138 16.1356 17.6138H19.4546C19.7553 17.6138 20 17.3692 20 17.0685V15.9023C20 15.6016 19.7553 15.357 19.4546 15.357ZM19.4151 17.029H16.1751V15.9418H19.4151V17.029Z" fill="black"/>
<path d="M0.621122 4.49402H1.56039C1.72189 4.49402 1.85282 4.36313 1.85282 4.20159C1.85282 4.04005 1.72189 3.90915 1.56039 3.90915H0.621122C0.615391 3.90915 0.610751 3.90451 0.610751 3.89874V1.96656C0.610751 1.96083 0.615391 1.95615 0.621122 1.95615H4.54807C4.55376 1.95615 4.55844 1.96079 4.55844 1.96656V3.89874C4.55844 3.90447 4.55376 3.90915 4.54807 3.90915H2.80663C2.64513 3.90915 2.5142 4.04005 2.5142 4.20159C2.5142 4.36313 2.64513 4.49402 2.80663 4.49402H4.54807C4.8763 4.49402 5.14331 4.22697 5.14331 3.89874V2.259H5.74054L6.75202 4.10271C6.80524 4.19968 6.90537 4.25458 7.0087 4.25454C7.05623 4.25454 7.10446 4.24292 7.14911 4.21843C7.29069 4.14076 7.34251 3.963 7.26484 3.82138L6.17007 1.82592C6.11872 1.73234 6.02042 1.67412 5.91367 1.67412H5.06595C4.9636 1.49359 4.77001 1.37128 4.54807 1.37128H0.621122C0.292892 1.37128 0.0258789 1.63833 0.0258789 1.96656V3.89874C0.0258789 4.22697 0.292892 4.49402 0.621122 4.49402Z" fill="black"/>
<path d="M5.63836 14.3973H4.69679C4.59436 14.3973 4.49938 14.4509 4.44647 14.5385L3.94804 15.3641C3.92071 15.3598 3.89295 15.357 3.86444 15.357H0.545373C0.244632 15.357 0 15.6016 0 15.9023V17.0685C0 17.3692 0.244632 17.6138 0.545373 17.6138H3.8644C4.16511 17.6138 4.40978 17.3692 4.40978 17.0685V15.9023C4.40978 15.8538 4.4028 15.8071 4.39087 15.7622L4.86184 14.9821H5.6384C5.7999 14.9821 5.93083 14.8513 5.93083 14.6897C5.93083 14.5282 5.79986 14.3973 5.63836 14.3973ZM3.82491 17.029H0.584872V15.9418H3.82491V17.029Z" fill="black"/>
<path d="M4.30391 7.41644H2.66463C2.50313 7.41644 2.37219 7.54734 2.37219 7.70888C2.37219 7.87042 2.50313 8.00131 2.66463 8.00131H4.30391C4.46541 8.00131 4.59634 7.87042 4.59634 7.70888C4.59634 7.54734 4.46541 7.41644 4.30391 7.41644Z" fill="black"/>
<path d="M4.30382 9.15326H0.723588C0.562086 9.15326 0.431152 9.28415 0.431152 9.44569C0.431152 9.60724 0.562086 9.73813 0.723588 9.73813H4.30382C4.46532 9.73813 4.59626 9.60724 4.59626 9.44569C4.59626 9.28415 4.46532 9.15326 4.30382 9.15326Z" fill="black"/>
<path d="M4.30382 10.89H0.723588C0.562086 10.89 0.431152 11.0208 0.431152 11.1824C0.431152 11.3439 0.562086 11.4748 0.723588 11.4748H4.30382C4.46532 11.4748 4.59626 11.3439 4.59626 11.1824C4.59626 11.0208 4.46532 10.89 4.30382 10.89Z" fill="black"/>
<path d="M4.30382 12.6268H0.723588C0.562086 12.6268 0.431152 12.7577 0.431152 12.9192C0.431152 13.0807 0.562086 13.2116 0.723588 13.2116H4.30382C4.46532 13.2116 4.59626 13.0807 4.59626 12.9192C4.59626 12.7577 4.46532 12.6268 4.30382 12.6268Z" fill="black"/>
<path d="M0.723588 8.00131H1.56027C1.72177 8.00131 1.8527 7.87042 1.8527 7.70888C1.8527 7.54734 1.72177 7.41644 1.56027 7.41644H0.723588C0.562086 7.41644 0.431152 7.54734 0.431152 7.70888C0.431152 7.87042 0.562086 8.00131 0.723588 8.00131Z" fill="black"/>
<path d="M19.2764 7.41644H17.6372C17.4756 7.41644 17.3447 7.54734 17.3447 7.70888C17.3447 7.87042 17.4756 8.00131 17.6372 8.00131H19.2764C19.438 8.00131 19.5689 7.87042 19.5689 7.70888C19.5689 7.54734 19.438 7.41644 19.2764 7.41644Z" fill="black"/>
<path d="M19.2764 9.15326H15.6961C15.5346 9.15326 15.4037 9.28415 15.4037 9.44569C15.4037 9.60724 15.5346 9.73813 15.6961 9.73813H19.2764C19.4379 9.73813 19.5688 9.60724 19.5688 9.44569C19.5688 9.28415 19.4379 9.15326 19.2764 9.15326Z" fill="black"/>
<path d="M19.2764 10.89H15.6961C15.5346 10.89 15.4037 11.0208 15.4037 11.1824C15.4037 11.3439 15.5346 11.4748 15.6961 11.4748H19.2764C19.4379 11.4748 19.5688 11.3439 19.5688 11.1824C19.5688 11.0208 19.4379 10.89 19.2764 10.89Z" fill="black"/>
<path d="M19.2764 12.6268H15.6961C15.5346 12.6268 15.4037 12.7577 15.4037 12.9192C15.4037 13.0807 15.5346 13.2116 15.6961 13.2116H19.2764C19.4379 13.2116 19.5688 13.0807 19.5688 12.9192C19.5688 12.7577 19.4379 12.6268 19.2764 12.6268Z" fill="black"/>
<path d="M15.6961 8.00131H16.5328C16.6944 8.00131 16.8253 7.87042 16.8253 7.70888C16.8253 7.54734 16.6944 7.41644 16.5328 7.41644H15.6961C15.5346 7.41644 15.4037 7.54734 15.4037 7.70888C15.4037 7.87042 15.5346 8.00131 15.6961 8.00131Z" fill="black"/>
</svg>
