<svg width="20" height="20" viewBox="0 0 20 20" fill="none" xmlns="http://www.w3.org/2000/svg">
<g clip-path="url(#clip0)">
<path d="M17.8098 0.636465C17.7558 0.395059 17.5561 0.213536 17.3107 0.182832C14.8923 -0.119433 12.6583 -0.0482614 10.6707 0.394356C8.1396 0.957911 5.96979 2.12994 4.22124 3.87822C1.4944 6.60779 1.4944 11.0492 4.22151 13.779C4.48456 14.0419 4.76515 14.281 5.06026 14.4959V19.4133C5.06026 19.7369 5.32261 19.9992 5.6462 19.9992C5.9698 19.9992 6.23214 19.7369 6.23214 19.4133V15.1851C7.14179 15.606 8.14011 15.8281 9.17296 15.8281C11.0443 15.8281 12.802 15.1003 14.1221 13.7789C16.1859 11.7152 15.7585 8.87174 15.6179 7.276C15.4031 4.83979 15.2176 2.7358 17.5513 1.25943C17.7603 1.12717 17.8638 0.877911 17.8098 0.636465ZM5.05003 4.7067C7.11374 2.64338 9.79546 1.47857 13.0532 1.2235C11.656 1.90424 10.3057 2.89701 9.12683 4.14143C6.81534 6.58135 5.41995 9.69369 5.12136 13.0199C2.78612 10.7614 2.75015 7.00889 5.05003 4.7067ZM14.4505 7.37893C14.6344 9.46518 14.8081 11.4357 13.2932 12.9505C12.1942 14.0505 10.731 14.6563 9.17288 14.6563C8.12616 14.6563 7.12206 14.3825 6.24206 13.8696C6.36226 10.5271 7.67733 7.37541 9.97753 4.94732C11.0344 3.83174 12.2724 2.91045 13.5576 2.28307C14.1843 1.97717 14.8165 1.74365 15.4371 1.5867C14.9765 2.1765 14.6644 2.85111 14.4942 3.62092C14.2261 4.83357 14.3401 6.12756 14.4505 7.37893Z" fill="#0A8270"/>
</g>
<defs>
<clipPath id="clip0">
<rect width="20" height="20" fill="white"/>
</clipPath>
</defs>
</svg>
