<svg width="166" height="166" viewBox="0 0 166 166" fill="none" xmlns="http://www.w3.org/2000/svg">
<g clip-path="url(#clip0)">
<path d="M66.7116 1.08496C65.1727 1.54668 63.6338 1.93145 62.0949 2.39318C60.6329 2.77795 59.1709 3.16271 57.632 3.54748C54.6312 10.9351 50.7839 23.0168 50.3992 38.4076C50.0914 54.337 53.7078 67.0344 56.4779 74.5759C51.3225 70.8051 43.551 64.1871 37.0107 53.7214C29.2392 41.1779 26.9308 29.1731 26.1614 22.4781C24.0838 24.5559 21.9294 26.7106 19.8518 28.7883C21.4677 34.0982 23.1605 39.408 24.7764 44.7178C20.2366 43.5635 15.6199 42.3322 11.0801 41.1779C10.1567 43.4865 9.15644 45.7951 8.23309 48.1037C15.5429 50.3354 22.9297 52.644 30.2395 54.8757C33.1634 60.6472 38.3187 69.0352 46.9366 76.8845C53.0153 82.4251 59.0171 86.1189 63.7877 88.5815C67.4041 95.2764 74.3292 110.205 73.6367 130.213C73.0981 146.066 68.0197 158.071 64.711 164.612C67.0963 164.997 69.4816 165.381 71.8669 165.689C75.4064 158.609 81.1004 144.45 80.9465 125.904C80.7926 109.436 76.022 96.8155 72.7903 89.8127C70.328 86.2728 67.7119 81.9634 65.3266 76.8845C62.0949 70.1125 60.1712 63.8023 58.9401 58.5695C65.3266 54.7218 75.1756 47.7959 84.0243 36.1759C94.4889 22.4012 98.4131 8.78034 100.029 1.08496C97.6436 1.08496 95.1814 1.08496 92.7961 1.08496C91.488 7.47213 88.5641 17.5531 81.562 28.1727C73.3289 40.5623 63.4029 47.642 57.632 51.1819C56.7087 45.1795 55.9392 35.945 58.0168 25.0176C59.9404 14.398 63.7877 6.24087 66.7116 1.08496Z" fill="#0A8270"/>
<path d="M158.353 47.5651C157.43 45.4873 156.507 43.4095 155.583 41.3318C150.736 42.2552 144.811 43.7943 138.425 46.4877C131.5 49.335 125.883 52.644 121.574 55.6452C123.497 50.2584 125.421 42.9478 126.267 34.252C127.114 25.2484 126.498 17.5531 125.652 11.7815C123.036 10.3964 120.419 9.01119 117.803 7.54907C119.419 14.7827 121.881 29.8657 116.726 47.5651C112.571 61.8015 105.415 71.6516 100.798 77.0384C100.26 73.9602 98.7208 67.0344 93.1038 60.4163C87.5637 53.7983 81.0234 51.028 78.0995 50.0276C77.0992 52.0284 76.1758 54.0292 75.1755 56.03C77.9456 57.0304 84.0242 59.7238 88.7179 66.1109C96.5663 76.8075 93.7194 89.1201 93.2577 90.967C89.8721 98.7393 84.332 114.361 86.1018 134.292C87.3329 148.298 91.6418 159.148 95.0274 165.92C97.3358 165.381 99.6442 164.843 101.953 164.304C98.5669 157.686 92.1805 142.911 93.0269 123.365C93.7963 105.203 100.491 91.8904 104.184 85.5033C108.108 79.1161 116.11 67.9578 130.115 58.9542C141.118 51.8745 151.505 48.8733 158.353 47.5651Z" fill="#0A8270"/>
<path d="M144.965 138.755L151.352 131.445C151.198 130.598 148.966 118.593 137.501 113.514C126.498 108.666 116.649 114.361 115.726 114.977C117.572 111.283 123.574 100.125 137.117 93.1987C149.736 86.8115 161.431 87.8889 165.663 88.4276C165.894 86.042 166.125 83.5795 166.433 81.1939C145.35 78.1157 124.344 87.5041 112.648 105.05C101.491 121.902 100.568 143.68 110.263 161.534C112.417 160.995 114.572 160.456 116.726 159.918C109.032 144.45 110.109 129.213 118.111 122.441C118.419 122.21 125.344 116.516 133.115 118.978C140.117 121.21 145.196 129.136 144.965 138.755Z" fill="#0A8270"/>
<path d="M21.3908 138.755L15.0043 131.445C15.1582 130.598 17.3897 118.593 28.8545 113.514C39.8577 108.666 49.7067 114.361 50.6301 114.977C48.8603 111.283 42.7816 100.124 29.2392 93.1986C16.1585 86.5806 4.07811 87.9658 0 88.6584C0 86.1958 0 83.7333 0 81.2708C21.083 78.1926 42.0891 87.581 53.7848 105.126C64.9419 121.979 65.8652 143.757 56.1701 161.611C54.0157 161.072 51.8612 160.533 49.7067 159.995C57.4013 144.527 56.324 129.29 48.3217 122.518C48.0139 122.287 41.0888 116.593 33.3173 119.055C26.2384 121.21 21.2369 129.136 21.3908 138.755Z" fill="#0A8270"/>
<path d="M2.92389 63.9562C5.00141 68.2656 9.15647 71.1899 13.7732 71.4977C19.3133 71.8825 23.0836 68.3426 23.6222 67.727C23.0836 66.4187 21.6216 63.2636 18.313 61.4937C13.6962 59.0312 7.54061 59.9546 2.92389 63.9562Z" fill="#27A09E"/>
<path d="M30.7781 74.268C30.3164 79.0392 32.317 83.6564 36.1643 86.3498C40.704 89.5049 45.7824 88.4275 46.5519 88.2736C46.7827 86.8884 47.1674 83.4255 45.2438 80.1165C42.6277 75.5762 36.8568 73.1907 30.7781 74.268Z" fill="#27A09E"/>
<path d="M3.61639 108.436C7.38672 111.437 12.3882 112.206 16.6971 110.359C21.8524 108.205 23.6222 103.357 23.853 102.587C22.7758 101.664 20.0827 99.5089 16.3124 99.355C11.157 99.2011 6.07865 102.741 3.61639 108.436Z" fill="#27A09E"/>
<path d="M41.4735 22.4781C37.4724 25.0945 35.164 29.6348 35.4718 34.252C35.8565 39.7927 39.8577 43.0248 40.5502 43.5634C41.7813 42.8708 44.7052 41.024 46.0133 37.4071C47.86 32.4821 46.0903 26.5566 41.4735 22.4781Z" fill="#27A09E"/>
<path d="M77.2531 5.70215C72.6364 7.16427 69.2508 10.8581 68.2505 15.3983C67.0964 20.8621 70.0972 25.0176 70.6358 25.7101C72.0209 25.4023 75.3295 24.325 77.5609 21.3238C80.7157 17.0913 80.6387 10.8581 77.2531 5.70215Z" fill="#27A09E"/>
<path d="M107.339 11.9354C103.338 14.6288 101.106 19.1691 101.568 23.7863C102.029 29.327 106.108 32.4821 106.8 32.9438C108.031 32.2512 110.878 30.3274 112.186 26.7106C113.879 21.8625 112.032 15.937 107.339 11.9354Z" fill="#27A09E"/>
<path d="M99.4134 40.6392C96.1048 44.1021 94.8736 49.0272 96.2587 53.4136C97.8745 58.7234 102.568 60.955 103.261 61.2629C104.338 60.3394 106.723 57.7999 107.185 54.0292C107.954 48.9502 104.8 43.5635 99.4134 40.6392Z" fill="#27A09E"/>
<path d="M77.7148 71.6516C75.3295 75.8071 75.3295 80.8861 77.7148 84.8877C80.5617 89.6588 85.6401 90.7362 86.4096 90.8901C87.179 89.7358 88.9488 86.7346 88.4871 82.9638C87.9485 77.731 83.6396 73.2676 77.7148 71.6516Z" fill="#27A09E"/>
<path d="M141.041 23.3246C136.424 24.7098 132.962 28.4035 131.961 32.8669C130.73 38.3306 133.731 42.4861 134.193 43.1787C135.578 42.8709 138.886 41.8705 141.195 38.8693C144.349 34.7907 144.273 28.5574 141.041 23.3246Z" fill="#27A09E"/>
<path d="M142.734 67.4961C146.042 70.9591 150.89 72.4212 155.353 71.3438C160.739 69.9587 163.201 65.4184 163.586 64.7258C162.663 63.6484 160.354 61.109 156.584 60.4164C151.505 59.416 145.965 62.1863 142.734 67.4961Z" fill="#27A09E"/>
<path d="M129.576 74.345C124.882 73.2677 120.035 74.6528 116.88 78.0388C113.11 82.1173 113.494 87.2732 113.571 88.1197C114.956 88.5045 118.265 89.351 121.804 87.8889C126.652 85.8881 129.73 80.5013 129.576 74.345Z" fill="#27A09E"/>
<path d="M142.811 101.818C144.119 106.435 147.735 109.975 152.198 111.052C157.584 112.36 161.893 109.436 162.586 108.974C162.278 107.589 161.354 104.28 158.354 101.894C154.352 98.7394 148.12 98.6624 142.811 101.818Z" fill="#27A09E"/>
</g>
<defs>
<clipPath id="clip0">
<rect width="166" height="166" fill="white"/>
</clipPath>
</defs>
</svg>
