<svg width="374" height="719" viewBox="0 0 374 719" fill="none" xmlns="http://www.w3.org/2000/svg">
<rect width="374" height="719" fill="white"/>
<mask id="mask0" mask-type="alpha" maskUnits="userSpaceOnUse" x="0" y="333" width="340" height="386">
<rect y="333" width="340" height="386" fill="white"/>
</mask>
<g mask="url(#mask0)">
<path d="M265.851 594.908C272.246 573.385 268.197 538 265.851 538C263.504 538 250.719 553.351 244.732 565.574C238.155 579 234.894 597.254 234.171 601.948C233.449 606.641 232.038 619.551 232.998 630.108C233.904 640.075 238.278 655.336 238.278 655.336C238.278 655.336 251.08 664.063 262.919 667.069C276.937 670.629 291.079 669.416 304.573 667.069C319.168 664.531 339.187 651.816 338.013 649.469C336.84 647.122 325.032 649.448 313.373 650.642C303.959 651.607 292.32 655.75 282.866 655.336C275.904 655.031 270.979 652.878 264.092 651.816C257.687 650.827 250.012 650.642 249.424 649.469C248.835 648.295 258.485 645.077 264.679 641.255C272.907 636.178 283.677 627.342 291.666 621.895C306.178 612 317.17 615.013 327.453 600.775C335.08 590.214 342.705 567.921 339.772 566.747C336.839 565.574 318.066 570.267 302.813 579.067C295.23 583.442 288.786 593.84 281.106 603.121C272.933 612.998 263.633 621.767 259.399 626.002C248.797 636.603 244.732 648.882 242.972 647.709C241.212 646.535 245.551 633.695 250.012 627.175C257.639 616.028 261.501 609.545 265.851 594.908Z" fill="#282931"/>
<path d="M191.344 664.723C190.31 671.614 193.104 682.909 193.104 682.909C193.104 682.909 196.624 691.71 206.598 696.99C216.571 702.27 229.917 698.886 244.145 699.337C257.885 699.772 267.784 701.557 281.105 698.163C294.519 694.746 311.613 684.67 309.853 682.909C308.092 681.149 297.154 684.461 288.732 683.496C280.56 682.56 271.715 678.143 263.505 677.629C244.731 676.456 235.29 676.314 219.505 677.629C212.464 678.216 201.904 679.39 200.144 677.629C199.15 676.635 208.774 664.441 213.051 655.336C218.903 642.876 222.41 632.72 224.198 621.895C227.828 599.911 225.371 562.054 221.264 562.64C217.157 563.227 208.856 586.778 205.424 601.361C203.078 611.335 203.481 621.898 199.557 637.149C196.724 648.165 193.104 652.989 191.344 664.723Z" fill="#282931"/>
<path d="M155.556 665.309C153.21 674.892 157.903 702.857 157.903 702.857C157.903 702.857 172.766 716.937 177.264 721.63C186.903 731.69 189.584 739.817 200.144 747.444C214.196 757.593 247.078 758.004 248.252 755.658C249.426 753.311 226.079 736.353 211.878 723.977C202.941 716.189 200.084 709.532 189.584 704.03C181.303 699.691 168.463 701.683 166.703 699.336C164.944 696.99 188.316 647.083 177.85 621.895C172.413 608.81 157.316 598.624 156.143 600.188C154.97 601.752 156.143 609.458 157.316 612.508C158.49 615.558 159.663 629.522 159.663 634.215C159.663 636.609 157.903 655.727 155.556 665.309Z" fill="#282931"/>
<path d="M250.325 646.445C250.325 646.445 203.194 677.654 172.57 696.99C142.24 716.141 94.2685 745.007 94.2685 745.007" stroke="#2A2A32" stroke-width="2"/>
<path d="M42.1833 680.326C45.0768 689.73 63.8854 723.007 63.8854 723.007L126.83 733.134C126.83 733.134 168.665 741.509 189.766 728.794C203.652 720.427 216.523 701.304 217.255 697.687C217.987 694.07 183.943 694.435 164.447 701.304C148.037 707.086 128.991 727.347 126.83 725.177C124.669 723.007 128.286 697.687 131.17 675.262C134.055 652.837 136.949 622.454 133.341 620.283C129.732 618.113 116.694 640.539 107.298 662.964C97.9026 685.389 95.7149 708.539 93.5534 711.432C91.392 714.326 93.5534 707.092 76.9152 675.262C60.2769 643.432 32.056 613.049 30.6089 620.283C29.1618 627.517 39.2898 670.922 42.1833 680.326Z" fill="#BBC59A"/>
<path d="M47.2471 643.432C47.2471 643.432 61.1833 667.578 68.2257 683.943C74.9286 699.519 82.64 724.902 82.64 724.902" stroke="#E2EAD4" stroke-linecap="round" stroke-linejoin="round"/>
<path d="M123.193 647.181C123.193 647.181 115.191 670.141 112.354 685.39C109.49 700.779 108.725 725.309 108.725 725.309" stroke="#E2EAD4" stroke-linecap="round" stroke-linejoin="round"/>
<path d="M199.506 704.111C199.506 704.111 181.537 710.026 170.949 715.773C160.526 721.43 145.974 733.047 145.974 733.047" stroke="#E2EAD4" stroke-linecap="round" stroke-linejoin="round"/>
<path d="M13.0212 708.766C8.68077 711.659 3.61694 717.447 3.61694 717.447C3.61694 717.447 11.0263 717.226 15.1914 715.276C19.5485 713.237 25.319 709.489 24.5956 707.319C23.8722 705.149 17.3616 705.872 13.0212 708.766Z" fill="#27262E"/>
<path d="M0.370476 705.294C1.51455 708.669 3.23029 717.447 3.23029 717.447C3.23029 717.447 7.23403 710.02 7.23403 705.294C7.23403 700.567 4.37422 697.192 2.65833 697.192C0.94244 697.191 -0.773602 701.918 0.370476 705.294Z" fill="#27262E"/>
<line x1="18.947" y1="693.544" x2="2.14004" y2="718.755" stroke="#2B2A30" stroke-linecap="round" stroke-linejoin="round"/>
<path d="M13.7448 701.532C13.7448 701.532 12.3491 694.619 13.0215 690.681C13.6594 686.945 14.468 682 17.3619 682C20.2558 682 20.2562 686.34 20.2558 690.681C20.2558 691.267 20.1369 691.904 19.9313 692.569C20.8235 691.381 21.6939 690.415 22.4256 689.957C25.3192 688.149 29.6601 684.894 31.8303 687.787C34.0005 690.681 28.9367 695.021 24.5963 697.915C20.2558 700.808 14.4682 701.532 14.4682 701.532C14.0244 702.113 13.7448 701.532 13.7448 701.532Z" fill="#27262E"/>
<path d="M32.0554 717.22C34.2272 720.113 36.5089 721.222 36.5089 721.222H56.0408C56.0408 721.222 49.5105 715.087 44.4663 712.541C38.7151 709.639 29.2745 706.754 28.5514 708.201C27.8283 709.648 29.8837 714.326 32.0554 717.22Z" fill="#677C58"/>
<path d="M37.119 713.559C40.0129 714.283 43.0845 716.73 45.7997 720.793" stroke="#304425" stroke-linecap="round" stroke-linejoin="round"/>
<path d="M30.2223 675.986C35.4464 689.481 56.2653 709.985 56.2653 709.985C56.2653 709.985 53.8321 685.849 48.3074 673.815C42.9317 662.106 30.9456 649.943 28.7754 649.943C26.6052 649.943 25.7418 664.411 30.2223 675.986Z" fill="#687B56"/>
<path d="M50.2563 694.794C50.2563 694.794 52.5029 702.352 54.6731 706.692C56.8433 711.032 63.2776 720.836 63.2776 720.836" stroke="#687B56" stroke-linecap="round"/>
<path d="M33.7914 659.811C36.827 671.742 39.929 679.925 48.2594 697.428" stroke="#253B19" stroke-linecap="round" stroke-linejoin="round"/>
<path d="M67.7208 702.752C67.9054 709.863 69.891 720.837 69.891 720.837H77.1251C77.1251 720.837 78.0668 712.879 76.4017 701.305C74.7365 689.73 71.3378 678.879 69.1673 678.879C66.9968 678.879 67.4852 693.675 67.7208 702.752Z" fill="#627954"/>
<path d="M71.3377 691.177C71.3377 691.177 73.2051 699.962 73.4732 705.645C73.7389 711.276 73.471 720.08 73.471 720.08" stroke="#253B19" stroke-linecap="round" stroke-linejoin="round"/>
<path d="M183.973 365.645C180.91 374.819 181.077 390.965 181.077 390.965C181.077 390.965 192.315 384.452 197.717 378.667L197.87 378.503C202.049 374.028 208.542 367.075 206.398 365.645C204.228 364.199 196.994 368.539 194.824 370.709C192.653 372.879 187.588 380.837 186.864 380.837C186.141 380.837 193.377 368.539 194.824 364.199C196.27 359.858 197.717 347.56 194.824 346.114C191.93 344.667 186.736 357.369 183.973 365.645Z" fill="#25292B"/>
<path d="M160.821 398.199C160.822 407.87 162.993 425.801 162.993 425.801C162.993 425.801 181.392 417.957 188.311 414.113C194.821 410.496 209.289 396.752 205.672 393.135C202.055 389.518 191.204 397.475 185.417 401.092C179.63 404.709 169.502 414.723 168.78 414.113C168.057 413.504 170.949 400.482 171.672 394.582C172.396 388.681 173.844 374.326 168.78 374.326C163.716 374.326 160.821 390.965 160.821 398.199Z" fill="#25292B"/>
<path d="M84.1404 593.518C87.37 601.594 97.8843 614.496 97.8843 614.496C97.8843 614.496 117.416 602.198 120.31 599.305C125.404 594.21 142.012 576.879 137.671 571.815C133.331 566.751 117.416 584.837 112.352 589.9C107.288 594.964 100.044 604.194 99.3311 603.645C98.6177 603.097 95.715 592.071 93.5447 588.454C91.3745 584.837 81.2474 569.645 78.3531 571.815C75.4588 573.986 82.6941 589.9 84.1404 593.518Z" fill="#25292B"/>
<path d="M137.672 443.05C137.673 453.651 140.54 473.433 140.54 473.433C140.54 473.433 169.502 454.624 173.119 451.007C177.519 446.607 192.605 433.27 189.034 429.305C185.463 425.34 168.779 440.097 166.608 441.603C164.438 443.109 146.967 461.289 146.254 460.621C145.541 459.952 147.077 443.05 147.077 437.986C147.077 432.922 148.46 415.56 143.46 415.56C138.459 415.56 137.672 435.12 137.672 443.05Z" fill="#25292B"/>
<path d="M113.801 484.284C113.801 495.68 121.179 521.177 121.179 521.177C121.179 521.177 148.322 504.673 152.864 501.645C157.205 498.752 176.903 480.588 173.12 476.326C169.336 472.064 150.099 487.005 147.8 488.624C145.502 490.243 127.987 508.123 127.232 507.404C126.476 506.686 126.098 489.727 126.098 484.284C126.098 478.84 124.161 456.071 118.865 456.071C113.568 456.071 113.801 477.05 113.801 484.284Z" fill="#25292B"/>
<path d="M96.4387 547.22C99.5691 558.178 105.265 577.603 105.265 577.603C105.265 577.603 128.268 558.794 131.885 555.177C134.443 552.619 152.457 533.475 149.247 529.858C146.037 526.241 134.056 538.539 128.268 543.603C122.481 548.666 110.216 563.13 109.46 562.411C108.704 561.693 107.29 539.986 106.566 535.645C105.843 531.305 103.183 516.837 97.8864 516.837C92.5899 516.837 94.9922 542.156 96.4387 547.22Z" fill="#25292B"/>
<path d="M186.822 382.528C185.418 380.837 139.115 467.891 119.588 526.964C104.265 573.317 91.3329 648.74 91.3329 648.74" stroke="#25292B"/>
<path d="M49.0485 606.105C54.937 631.05 80.6989 665.387 93.9479 657.463C107.197 649.539 108.963 596.6 97.6282 561.351C85.0663 522.285 28.439 482.113 28.439 482.113C28.439 482.113 36.082 500.422 39.4798 520.998C43.3727 544.573 43.5587 582.849 49.0485 606.105Z" fill="#9CB698"/>
<mask id="mask1" mask-type="alpha" maskUnits="userSpaceOnUse" x="28" y="482" width="78" height="177">
<path d="M49.0485 606.105C54.937 631.05 80.6989 665.387 93.9479 657.463C107.197 649.539 108.963 596.6 97.6282 561.351C85.0663 522.285 28.439 482.113 28.439 482.113C28.439 482.113 36.082 500.422 39.4798 520.998C43.3727 544.573 43.5587 582.849 49.0485 606.105Z" fill="#9CB698"/>
</mask>
<g mask="url(#mask1)">
<path d="M27.7163 482.169C27.7163 482.169 63.0935 534.497 76.1353 581.789C82.18 603.709 88.7562 620.858 91.9103 643.878C95.0643 666.898 92.3719 681.891 92.3719 681.891" stroke="#314D37" stroke-linejoin="bevel"/>
<path d="M37.12 512.496C37.12 512.496 41.2495 512.804 44.0096 514.157C46.5241 515.39 48.6943 516.837 48.6943 516.837" stroke="#314D37" stroke-linejoin="bevel"/>
<path d="M40.7374 540.709C40.7374 540.709 50.9148 541.716 56.1532 544.273C62.8883 547.56 66.056 553.007 66.056 553.007" stroke="#314D37" stroke-linejoin="bevel"/>
<path d="M42.1842 557.347C42.1842 557.347 55.3439 558.642 60.6429 561.077C68.6818 564.771 71.8429 566.752 71.8429 566.752" stroke="#314D37" stroke-linejoin="bevel"/>
<path d="M40.013 568.198C40.013 568.198 56.8404 569.602 62.1394 572.037C74.8612 577.882 76.1837 580.496 76.1837 580.496" stroke="#314D37" stroke-linejoin="bevel"/>
<path d="M42.184 581.943C42.184 581.943 59.0861 582.754 64.3852 585.189C77.107 591.034 80.525 596.411 80.525 596.411" stroke="#314D37" stroke-linejoin="bevel"/>
<path d="M46.5245 596.411C46.5245 596.411 61.1795 596.178 66.7794 597.858C74.0134 600.028 83.4179 606.539 83.4179 606.539" stroke="#314D37" stroke-linejoin="bevel"/>
<path d="M58.8217 630.411C58.8217 630.411 71.72 628.647 77.5723 630.077C84.8639 631.858 90.6512 634.751 90.6512 634.751" stroke="#314D37" stroke-linejoin="bevel"/>
<path d="M67.503 642.709C67.503 642.709 76.8397 640.869 81.9119 642.326C88.1709 644.124 92.0977 647.051 92.0977 647.051" stroke="#314D37" stroke-linejoin="bevel"/>
<path d="M50.8644 614.496C50.8644 614.496 64.1205 611.571 71.8431 613.773C77.6279 615.422 86.3111 618.113 86.3111 618.113" stroke="#314D37" stroke-linejoin="bevel"/>
<path d="M38.5666 526.964C38.5666 526.964 45.8143 527.868 49.6232 530.014C57.5703 534.492 58.0985 535.645 58.0985 535.645" stroke="#314D37" stroke-linejoin="bevel"/>
<path d="M55.2059 503.092C55.2059 503.092 53.0435 505.482 51.3732 508.255C49.7028 511.028 48.6946 516.837 48.6946 516.837" stroke="#314D37" stroke-linejoin="bevel"/>
<path d="M76.1843 524.794C76.1843 524.794 72.4245 529.794 70.0181 535.021C66.8388 541.927 66.0637 553.483 66.0637 553.483" stroke="#314D37" stroke-linejoin="bevel"/>
<path d="M86.8354 538.427C86.8354 538.427 79.9932 545.664 78.4349 548.525C71.888 560.546 71.8432 567.475 71.8432 567.475" stroke="#314D37" stroke-linejoin="bevel"/>
<path d="M95.8152 553.04C95.8152 553.04 89.7783 558.134 86.7044 562.438C78.6952 573.653 76.1837 581.943 76.1837 581.943" stroke="#314D37" stroke-linejoin="bevel"/>
<path d="M101.053 568.384C101.053 568.384 94.1136 574.342 90.2298 578.78C80.8868 589.456 80.5239 597.135 80.5239 597.135" stroke="#314D37" stroke-linejoin="bevel"/>
<path d="M104.795 582.997C104.795 582.997 97.8078 589.13 93.9567 593.765C84.4333 605.224 83.4176 607.262 83.4176 607.262" stroke="#314D37" stroke-linejoin="bevel"/>
<path d="M107.041 615.875C107.041 615.875 101.503 620.283 98.8088 623.912C90.3286 635.336 90.6516 636.198 90.6516 636.198" stroke="#314D37" stroke-linejoin="bevel"/>
<path d="M105.544 634.872C105.544 634.872 101.554 637.507 98.8087 639.986C94.9924 643.432 92.0984 647.773 92.0984 647.773" stroke="#314D37" stroke-linejoin="bevel"/>
<path d="M106.292 599.071C106.292 599.071 102.55 601.993 97.3119 607.108C92.9092 611.406 86.3115 618.837 86.3115 618.837" stroke="#314D37" stroke-linejoin="bevel"/>
<path d="M64.6094 511.773C64.6094 511.773 61.3921 516.508 59.8954 520.892C57.1356 528.976 58.0987 535.645 58.0987 535.645" stroke="#314D37" stroke-linejoin="bevel"/>
</g>
<path d="M74.01 574.709C74.01 574.709 91.3725 627.517 93.5441 654.283C95.7157 681.049 94.2602 720.744 94.2602 720.744" stroke="#314D37"/>
<path d="M169.483 653.879C163.483 675.046 137.235 704.182 123.736 697.458C110.237 690.734 108.438 645.813 119.986 615.903C132.785 582.754 190.481 548.667 190.481 548.667C190.481 548.667 182.694 564.202 179.232 581.662C175.265 601.666 175.076 634.145 169.483 653.879Z" fill="#9CB698"/>
<mask id="mask2" mask-type="alpha" maskUnits="userSpaceOnUse" x="112" y="548" width="79" height="151">
<path d="M169.483 653.879C163.483 675.046 137.235 704.182 123.736 697.458C110.237 690.734 108.438 645.813 119.986 615.903C132.785 582.754 190.481 548.667 190.481 548.667C190.481 548.667 182.694 564.202 179.232 581.662C175.265 601.666 175.076 634.145 169.483 653.879Z" fill="#9CB698"/>
</mask>
<g mask="url(#mask2)">
<path d="M191.216 548.713C191.216 548.713 155.171 593.116 141.883 633.246C135.725 651.845 129.024 666.397 125.811 685.931C122.597 705.464 125.34 718.186 125.34 718.186" stroke="#314D37" stroke-linejoin="bevel"/>
<path d="M181.634 574.448C181.634 574.448 177.427 574.708 174.615 575.857C172.053 576.903 169.842 578.131 169.842 578.131" stroke="#314D37" stroke-linejoin="bevel"/>
<path d="M177.948 598.388C177.948 598.388 167.578 599.242 162.241 601.411C155.379 604.201 152.151 608.823 152.151 608.823" stroke="#314D37" stroke-linejoin="bevel"/>
<path d="M176.475 612.506C176.475 612.506 163.067 613.605 157.668 615.671C149.478 618.805 146.257 620.486 146.257 620.486" stroke="#314D37" stroke-linejoin="bevel"/>
<path d="M178.687 621.713C178.687 621.713 161.542 622.904 156.143 624.971C143.181 629.931 141.834 632.149 141.834 632.149" stroke="#314D37" stroke-linejoin="bevel"/>
<path d="M176.475 633.376C176.475 633.376 159.254 634.064 153.855 636.13C140.893 641.09 137.411 645.653 137.411 645.653" stroke="#314D37" stroke-linejoin="bevel"/>
<path d="M172.052 645.653C172.052 645.653 157.12 645.455 151.415 646.881C144.044 648.722 134.462 654.247 134.462 654.247" stroke="#314D37" stroke-linejoin="bevel"/>
<path d="M159.523 674.503C159.523 674.503 146.381 673.007 140.419 674.22C132.99 675.731 127.093 678.186 127.093 678.186" stroke="#314D37" stroke-linejoin="bevel"/>
<path d="M150.678 684.939C150.678 684.939 141.165 683.378 135.997 684.614C129.62 686.14 125.619 688.624 125.619 688.624" stroke="#314D37" stroke-linejoin="bevel"/>
<path d="M167.631 660.999C167.631 660.999 154.125 658.517 146.257 660.385C140.363 661.785 131.516 664.068 131.516 664.068" stroke="#314D37" stroke-linejoin="bevel"/>
<path d="M180.161 586.725C180.161 586.725 172.776 587.492 168.896 589.313C160.799 593.112 160.261 594.091 160.261 594.091" stroke="#314D37" stroke-linejoin="bevel"/>
<path d="M163.207 566.468C163.207 566.468 165.41 568.496 167.112 570.849C168.814 573.202 169.841 578.131 169.841 578.131" stroke="#314D37" stroke-linejoin="bevel"/>
<path d="M141.833 584.883C141.833 584.883 145.663 589.125 148.115 593.561C151.354 599.421 152.144 609.227 152.144 609.227" stroke="#314D37" stroke-linejoin="bevel"/>
<path d="M130.981 596.451C130.981 596.451 137.952 602.592 139.54 605.02C146.21 615.22 146.256 621.1 146.256 621.1" stroke="#314D37" stroke-linejoin="bevel"/>
<path d="M121.832 608.851C121.832 608.851 127.982 613.174 131.114 616.826C139.275 626.342 141.834 633.376 141.834 633.376" stroke="#314D37" stroke-linejoin="bevel"/>
<path d="M116.495 621.871C116.495 621.871 123.565 626.927 127.523 630.692C137.042 639.751 137.411 646.267 137.411 646.267" stroke="#314D37" stroke-linejoin="bevel"/>
<path d="M112.682 634.27C112.682 634.27 119.802 639.475 123.726 643.407C133.429 653.131 134.464 654.861 134.464 654.861" stroke="#314D37" stroke-linejoin="bevel"/>
<path d="M110.396 662.169C110.396 662.169 116.038 665.91 118.783 668.989C127.423 678.682 127.094 679.414 127.094 679.414" stroke="#314D37" stroke-linejoin="bevel"/>
<path d="M111.919 678.289C111.919 678.289 115.985 680.525 118.782 682.629C122.67 685.553 125.618 689.236 125.618 689.236" stroke="#314D37" stroke-linejoin="bevel"/>
<path d="M111.159 647.91C111.159 647.91 114.971 650.39 120.308 654.73C124.794 658.377 131.516 664.682 131.516 664.682" stroke="#314D37" stroke-linejoin="bevel"/>
<path d="M153.627 573.834C153.627 573.834 156.905 577.852 158.43 581.572C161.242 588.431 160.26 594.091 160.26 594.091" stroke="#314D37" stroke-linejoin="bevel"/>
</g>
<path d="M126.822 681.049C126.822 681.049 125.576 683.22 124.651 694.071C123.726 704.922 126.822 717.943 126.822 717.943" stroke="#314D37"/>
</g>
<rect width="374" height="719" fill="white" fill-opacity="0.6"/>
</svg>
