<svg width="245" height="245" viewBox="0 0 245 245" fill="none" xmlns="http://www.w3.org/2000/svg">
<path d="M206.24 58.2832V185.76C206.24 196.766 197.292 205.762 186.238 205.762H58.7617C47.7559 205.762 38.7598 196.813 38.7598 185.76V58.2832C38.7598 47.2773 47.708 38.2812 58.7617 38.2812H186.238C197.292 38.2812 206.24 47.2295 206.24 58.2832Z" fill="#ECF9FD"/>
<path d="M206.24 58.2832V185.76C206.24 196.766 197.292 205.762 186.238 205.762H122.5V38.2812H186.238C197.292 38.2812 206.24 47.2295 206.24 58.2832Z" fill="#D9F3FC"/>
<path d="M147.622 155.518C130.635 171.356 104.029 170.447 88.1426 153.46C72.2559 136.473 73.2129 109.867 90.2002 93.9804C105.034 80.1513 153.795 78.4287 166.045 78.1894C167.576 78.1415 168.772 79.4335 168.629 80.9648C167.576 93.1669 162.408 141.688 147.622 155.518Z" fill="#BBEC6C"/>
<path d="M154.034 161.355C157.288 158.006 157.288 152.646 154.034 149.249C150.685 145.804 145.229 145.756 141.784 149.105C141.688 149.201 141.641 149.249 141.545 149.345C130.252 159.728 113.695 160.877 101.254 153.125L157.575 100.584C156.666 106.518 155.518 113.025 154.034 119.437C152.934 124.079 155.853 128.769 160.542 129.821C165.184 130.922 169.873 128.003 170.926 123.313C174.897 106.135 176.716 88.5254 177.29 81.7304C177.577 78.5722 176.477 75.414 174.323 73.1172C172.17 70.7724 169.107 69.4804 165.901 69.5761C146.856 69.9111 100.728 72.3515 84.3145 87.7119C66.0352 104.795 63.2119 132.31 76.4668 152.551L70.4375 158.149C66.9443 161.403 66.7529 166.906 70.0068 170.399C73.2607 173.893 78.7637 174.084 82.2568 170.83L88.2861 165.231C107.57 179.874 135.229 178.965 153.556 161.882C153.699 161.69 153.843 161.547 154.034 161.355ZM96.1338 100.345C103.168 93.789 123.792 89.7216 145.756 87.9033L89.4346 140.444C82.4961 127.429 84.8408 110.824 96.1338 100.345Z" fill="black"/>
<path d="M237.344 129.678H7.65626C-1.81835 129.678 -1.8662 115.322 7.65626 115.322H237.344C246.818 115.322 246.818 129.678 237.344 129.678Z" fill="#58B354"/>
<path d="M237.344 129.678H122.5V115.322H237.344C246.818 115.322 246.818 129.678 237.344 129.678Z" fill="#00A963"/>
<path d="M230.645 60.7715V26.4619C230.645 19.7627 225.189 14.3555 218.538 14.3555H184.229C174.754 14.3555 174.706 0 184.229 0H218.538C233.133 0 245 11.8672 245 26.4619V60.7715C245 70.2461 230.645 70.294 230.645 60.7715Z" fill="#001737"/>
<path d="M218.538 245H184.229C174.754 245 174.706 230.645 184.229 230.645H218.538C225.237 230.645 230.645 225.189 230.645 218.538V184.229C230.645 174.754 245 174.706 245 184.229V218.538C245 233.133 233.133 245 218.538 245Z" fill="#001737"/>
<path d="M0 60.7715V26.4619C0 11.8672 11.8672 0 26.4619 0H60.7715C70.2461 0 70.2939 14.3555 60.7715 14.3555H26.4619C19.8105 14.3555 14.3555 19.8105 14.3555 26.4619V60.7715C14.3555 70.2461 0 70.2939 0 60.7715Z" fill="#00357B"/>
<path d="M60.7715 245H26.4619C11.8672 245 0 233.133 0 218.538V184.229C0 174.754 14.3555 174.706 14.3555 184.229V218.538C14.3555 225.237 19.8105 230.645 26.4619 230.645H60.7715C70.2461 230.645 70.294 245 60.7715 245Z" fill="#00357B"/>
<path d="M186.238 205.762H163.461C153.986 205.762 153.938 191.406 163.461 191.406H186.238C189.349 191.406 191.885 188.87 191.885 185.76V162.982C191.885 153.508 206.24 153.46 206.24 162.982V185.76C206.24 196.813 197.292 205.762 186.238 205.762Z" fill="#001737"/>
<path d="M191.885 81.0605V58.2832C191.885 55.1729 189.349 52.6367 186.238 52.6367H163.461C153.986 52.6367 153.938 38.2812 163.461 38.2812H186.238C197.244 38.2812 206.24 47.2295 206.24 58.2832V81.0605C206.24 90.5352 191.885 90.5352 191.885 81.0605Z" fill="#001737"/>
<path d="M38.7598 81.0605V58.2832C38.7598 47.2773 47.708 38.2812 58.7617 38.2812H81.5391C91.0137 38.2812 91.0615 52.6367 81.5391 52.6367H58.7617C55.6514 52.6367 53.1152 55.1729 53.1152 58.2832V81.0605C53.1152 90.5352 38.7598 90.5352 38.7598 81.0605Z" fill="#00357B"/>
<path d="M81.5391 205.762H58.7617C47.7559 205.762 38.7598 196.813 38.7598 185.76V162.982C38.7598 153.508 53.1152 153.46 53.1152 162.982V185.76C53.1152 188.87 55.6514 191.406 58.7617 191.406H81.5391C91.0137 191.406 91.0137 205.762 81.5391 205.762Z" fill="#00357B"/>
</svg>
