<svg width="35" height="35" viewBox="0 0 35 35" fill="none" xmlns="http://www.w3.org/2000/svg">
<rect width="35" height="35" rx="7" fill="#2BAD96"/>
<path d="M22.6113 20.9311C22.4305 20.9311 22.2497 20.9205 22.0795 20.878V23.0794H8.254V13.5079H14.518C14.0501 12.5189 13.7417 11.4128 13.5928 10.2004C13.5502 9.88137 13.5609 9.56232 13.6247 9.25391H5.86113C4.84017 9.25391 4 10.0941 4 11.115V11.6468C4 12.6677 4.84017 13.5079 5.86113 13.5079H6.127V23.0794C6.127 24.2493 7.08415 25.2064 8.254 25.2064H14.1033V27.7482C13.7842 28.0353 13.5715 28.4607 13.5715 28.9287C13.5715 29.8114 14.2841 30.5239 15.1668 30.5239C16.0495 30.5239 16.762 29.8114 16.762 28.9287C16.762 28.4607 16.5493 28.0353 16.2303 27.7482V25.2064H22.0795C23.2494 25.2064 24.2065 24.2493 24.2065 23.0794V20.4951C23.7386 20.7716 23.1962 20.9311 22.6113 20.9311Z" fill="white"/>
<path d="M28.0616 5H22.58C18.7511 5 15.6361 8.11502 15.6361 11.9439V16.8199L14.4982 17.9578C13.9272 18.5289 13.9272 19.4547 14.4982 20.0257C15.0692 20.5968 15.995 20.5968 16.5661 20.0257L17.704 18.8878H22.5801C26.4089 18.8878 29.5239 15.7728 29.5239 11.9439V6.46222C29.5238 5.65469 28.8692 5 28.0616 5ZM26.5994 11.944C26.5994 14.1603 24.7963 15.9635 22.58 15.9635H20.6283L23.6139 12.9779C24.1849 12.4068 24.1849 11.4811 23.6139 10.91C23.0429 10.339 22.117 10.339 21.546 10.91L18.5605 13.8956V11.9439C18.5605 9.72756 20.3636 7.92445 22.5799 7.92445H26.5993V11.944H26.5994Z" fill="white"/>
</svg>
