<svg width="35" height="35" viewBox="0 0 35 35" fill="none" xmlns="http://www.w3.org/2000/svg">
    <rect width="35" height="35" rx="7" fill="#27A09E" />
    <path
        d="M23.0208 13.6484H22.0794C20.2335 13.6484 18.7524 14.6983 18 16.0469C17.2474 14.698 15.766 13.6484 13.9205 13.6484H12.9791C12.6555 13.6484 12.3932 13.9108 12.3932 14.2344V15.1758C12.3932 17.7792 14.508 19.8411 17.0586 19.8411H17.414V22.1079C17.414 22.4315 17.6764 22.6939 18 22.6939C18.3236 22.6939 18.5859 22.4315 18.5859 22.1079V19.8411H18.9414C21.4944 19.8411 23.6068 17.7771 23.6068 15.1758V14.2344C23.6068 13.9108 23.3444 13.6484 23.0208 13.6484ZM17.4141 18.6693H17.0586C15.1432 18.6693 13.5651 17.1199 13.5651 15.1758V14.8203H13.9206C15.8361 14.8203 17.4141 16.3698 17.4141 18.3138V18.6693ZM22.4349 15.1758C22.4349 17.122 20.8549 18.6693 18.9414 18.6693H18.586V18.3138C18.586 16.3677 20.1659 14.8203 22.0795 14.8203H22.4349V15.1758H22.4349Z"
        fill="white" />
    <path
        d="M22.3932 8C20.8729 8 18.9545 8.73035 18 10.2713C17.0454 8.73016 15.1259 8 13.6068 8C10.9799 8 8 9.88871 8 14.2344C8 21.4093 16.1781 27.0512 17.7102 27.9233C17.8 27.9744 17.9 28 18 28C18.1 28 18.2 27.9744 18.2898 27.9233C19.7786 27.0758 28 21.4477 28 14.2344C28 9.99859 25.1285 8 22.3932 8V8ZM18 26.7205C16.4227 25.6929 9.17188 20.6196 9.17188 14.2344C9.17188 10.1436 12.0818 9.17188 13.6068 9.17188C15.1422 9.17188 17.4141 10.1825 17.4141 12.3516C17.4141 12.6752 17.6764 12.9375 18 12.9375C18.3236 12.9375 18.5859 12.6752 18.5859 12.3516C18.5859 10.1825 20.8578 9.17188 22.3932 9.17188C23.9186 9.17188 26.8281 10.1438 26.8281 14.2344C26.8281 20.6196 19.5773 25.6929 18 26.7205Z"
        fill="white" />
</svg>
